<svg enable-background="new 0 0 400 400" viewBox="0 0 400 400" xmlns="http://www.w3.org/2000/svg" xmlns:xlink="http://www.w3.org/1999/xlink"><linearGradient id="a" gradientTransform="matrix(1 0 0 -1 0 400)" gradientUnits="userSpaceOnUse" x1="86.8081" x2="333.1464" y1="30.2004" y2="276.5387"><stop offset="0" stop-color="#ffefff"/><stop offset="1" stop-color="#f1c8ff"/></linearGradient><linearGradient id="b" gradientTransform="matrix(1 0 0 -1 0 400)" gradientUnits="userSpaceOnUse" x1="247.1944" x2="339.2472" y1="255.744" y2="347.7967"><stop offset="0" stop-color="#ff8a1d"/><stop offset="1" stop-color="#ffd21e"/></linearGradient><linearGradient id="c" gradientTransform="matrix(1 0 0 -1 0 400)" gradientUnits="userSpaceOnUse" x1="62.8027" x2="131.0859" y1="221.4566" y2="289.7398"><stop offset="0" stop-color="#2ad271"/><stop offset="1" stop-color="#36ee84"/></linearGradient><linearGradient id="d"><stop offset="0" stop-color="#679af0"/><stop offset="1" stop-color="#4f76ea"/></linearGradient><linearGradient id="e" gradientUnits="userSpaceOnUse" x1="130.0939" x2="129.7809" xlink:href="#d" y1="262.9143" y2="359.0116"/><linearGradient id="f" gradientUnits="userSpaceOnUse" x1="292.9074" x2="230.5492" xlink:href="#d" y1="355.8208" y2="376.685"/><linearGradient id="g"><stop offset="0" stop-color="#f9b776"/><stop offset="1" stop-color="#f47960"/></linearGradient><linearGradient id="h" gradientTransform="matrix(.9962 .08652985 -.08652985 .9962 10.959 6.4689)" gradientUnits="userSpaceOnUse" x1="162.4655" x2="103.5727" xlink:href="#g" y1="241.0735" y2="230.3657"/><linearGradient id="i" gradientUnits="userSpaceOnUse" x1="258.0889" x2="225.7703" xlink:href="#g" y1="268.2191" y2="277.9147"/><linearGradient id="j" gradientUnits="userSpaceOnUse" x1="218.6479" x2="163.162" y1="214.8378" y2="302.9337"><stop offset="0" stop-color="#ff4e62"/><stop offset="1" stop-color="#c8273a"/></linearGradient><linearGradient id="k" gradientUnits="userSpaceOnUse" x1="256.164" x2="73.5636" xlink:href="#g" y1="297.296" y2="324.2282"/><linearGradient id="l" gradientTransform="matrix(1.0422 .03483109 -.03818923 .9994 8.6216 2.2116)" gradientUnits="userSpaceOnUse" x1="180.6292" x2="78.4185" xlink:href="#g" y1="280.1942" y2="269.4864"/><linearGradient id="m" gradientUnits="userSpaceOnUse" x1="194.2621" x2="194.128" y1="263.7002" y2="304.8908"><stop offset="0" stop-color="#ff8f9c" stop-opacity="0"/><stop offset="1" stop-color="#ff8f9c"/></linearGradient><linearGradient id="n" gradientUnits="userSpaceOnUse" x1="184.9928" x2="206.4999" y1="300.8744" y2="300.8744"><stop offset="0" stop-color="#474e6d"/><stop offset=".5" stop-color="#7783bb"/><stop offset="1" stop-color="#474e6d"/></linearGradient><linearGradient id="o" gradientUnits="userSpaceOnUse" x1="199.817" x2="170.0795" xlink:href="#g" y1="193.995" y2="210.1713"/><linearGradient id="p" gradientUnits="userSpaceOnUse" x1="176.9854" x2="239.7857" xlink:href="#g" y1="193.4686" y2="137.014"/><linearGradient id="q" gradientUnits="userSpaceOnUse" x1="208.0203" x2="194.5337" xlink:href="#g" y1="299.9429" y2="323.015"/><path d="m0 0h400v400h-400z" fill="none"/><g clip-rule="evenodd" fill-rule="evenodd"><path d="m342.3 249.9c-14.2-91.2-154.9-174.6-207.7-153.2-68.2 27.7-57.4 152.9-28.3 206.2 37.7 68.9 264.2 128.4 236-53z" fill="#fce9ff"/><path d="m221.9 116c-84.4 3.8-162.5 114.5-146.8 174.3 20.3 77.4 115.7 82.4 187 60.7 70.9-21.4 127.5-242.6-40.2-235z" fill="url(#a)"/><path d="m345.4 133.6h-71.4l-18.5 14.3v-14.3h-7.3c-4.8 0-8.6-3.9-8.6-8.6v-60.6c0-4.8 3.9-8.6 8.6-8.6h97.2c4.8 0 8.6 3.9 8.6 8.6v60.5c0 4.8-3.8 8.7-8.6 8.7z" fill="url(#b)"/><path d="m132.3 169.7h-3.2v10.6l-13.7-10.6h-50.5c-4.8 0-8.6-3.9-8.6-8.6v-40.4c0-4.8 3.9-8.6 8.6-8.6h67.4c4.8 0 8.6 3.9 8.6 8.6v40.3c.1 4.8-3.8 8.7-8.6 8.7z" fill="url(#c)"/><path d="m115.4 144.8c-.7-.1-.7-2.1-.7-2.1s2.1-2.1 2.6-4.8c1.2 0 2-2.9.8-4 .1-1.1 1.6-8.6-6.2-8.6s-6.2 7.5-6.2 8.6c-1.2 1-.5 4 .8 4 .5 2.8 2.6 4.8 2.6 4.8s0 1.9-.7 2.1c-2.3.4-10.9 4.1-10.9 8.2h29c-.2-4.1-8.8-7.9-11.1-8.2z" fill="#fff"/><path d="m330.2 105.7-7.1-1.8-.4-1.6c4.9-.8 7.4-2.3 7.5-2.4.3-.2.4-.4.4-.7s-.1-.6-.4-.8c0 0-3.3-2.8-3.3-12.2 0-8-1.9-12.1-5.6-12.1h-.5c-1.3-1.3-2.3-1.9-5-1.9-3.5 0-11.1 3.5-11.1 13.9 0 9.5-3.3 12.2-3.3 12.2-.4.3-.5.9-.2 1.3.1.1.2.2.3.2.1.1 2.6 1.5 7.5 2.4l-.4 1.6-7.1 1.8c-4.6 1.2-7.9 5.3-7.9 10.1 0 .5.4.9.9.9h42.7c.5 0 .9-.4.9-.9 0-4.7-3.3-8.9-7.9-10z" fill="#fff"/><path d="m281.9 99.4h-7.8v7.3c0 1-.8 1.7-1.7 1.7h-4.4c-1 0-1.7-.8-1.7-1.7v-7.3h-7.3c-1 0-1.7-.8-1.7-1.7v-4.3c0-1 .8-1.7 1.7-1.7h7.3v-7.8c0-1 .8-1.7 1.7-1.7h4.3c1 0 1.7.8 1.7 1.7v7.8h7.8c1 0 1.7.8 1.7 1.7v4.3c.1.9-.7 1.7-1.6 1.7z" fill="#fff"/><path d="m87.4 142.1h-5.6v5.3c0 .7-.6 1.3-1.3 1.3h-3c-.7 0-1.3-.6-1.3-1.3v-5.3h-5.2c-.7 0-1.3-.6-1.3-1.3v-3c0-.7.6-1.3 1.3-1.3h5.3v-5.5c0-.7.6-1.3 1.3-1.3h3c.7 0 1.3.6 1.3 1.3v5.6h5.6c.7 0 1.3.6 1.3 1.3v3c-.1.7-.7 1.2-1.4 1.2z" fill="#fff"/><path d="m98.3 67.8-6.5 1.7 1.6 6.1c.2.8-.3 1.7-1.1 1.9l-3.5.9c-.8.2-1.7-.3-1.9-1.1l-1.6-6.1-6.2 1.8c-.8.2-1.7-.3-1.9-1.1l-.9-3.5c-.2-.8.3-1.7 1.1-1.9l6.1-1.6-1.7-6.5c-.2-.8.3-1.7 1.1-1.9l3.5-.9c.8-.2 1.7.3 1.9 1.1l1.7 6.5 6.5-1.7c.8-.2 1.7.3 1.9 1.1l.9 3.5c.4.7-.1 1.5-1 1.7z" fill="#ffe8fa"/><path d="m354 192.8c-6.4 0-11.7-5.2-11.7-11.7s5.2-11.7 11.7-11.7c6.4 0 11.7 5.2 11.7 11.7s-5.2 11.7-11.7 11.7zm0-20.3c-4.8 0-8.6 3.9-8.6 8.6s3.9 8.6 8.6 8.6 8.6-3.9 8.6-8.6-3.8-8.6-8.6-8.6z" fill="#daf2ff"/><path d="m165.2 313c8.2-1.2 46.9-1.2 55 0 10.1 1.5 8.6 14.1 7.3 21.7-1.4 8.2-3.1 17.1-9.2 22.9-5.9 5.6-45.5 5.6-51.4 0-6.1-5.8-7.8-14.6-9.2-22.9-1.1-7.5-2.6-20.2 7.5-21.7z" fill="#2757aa"/><path d="m307.3 347.7c4.3 4.7 7 12.4 3.3 17.3-3.1 4.1-90.6-4-103.5-4-9.2-11.7-8.8-29.5 14.7-41.5 5-2.6 10.6.1 16 1.3 16 3.3 58.9 15.2 69.5 26.9z" fill="#2757aa"/><path d="m118.3 264.2c-6.3-.5-13.3 1.9-16.4 7.5-2.5 4.5-2 10.3.1 15s5.6 8.7 9.1 12.5c50 55.8 50.8 58.4 59.2 60.6 14.2 3.8 31.4-.1 18.8-32.8-2-5.2-55.1-61.4-70.8-62.8z" fill="#2757aa"/></g><path d="m162.7 378.4c-3.3-1.9-9.9-10.5-17.7-21.8l14.5-5.1c4.9 16.9 6.7 29 3.2 26.9z" fill="#f7b690"/><path clip-rule="evenodd" d="m105.6 265.2c8.9-4.3 17.6-3.2 24.7 8.3 9.5 15.5 22.4 53.2 29.3 78l-16.7 7.6c-10.6-24.1-31.4-55.3-39.4-69.5-4.5-8.1-4.9-21.1 2.1-24.4z" fill="url(#e)" fill-rule="evenodd"/><path d="m206.8 362.7 7.2 13.5c-10.8.7-19.5.8-23.1-.7s3.7-6.9 15.9-12.8z" fill="#f7b690"/><path clip-rule="evenodd" d="m292.2 347.4c13.5 0 20.1 6.9 20.1 11.8 0 8.3-5.1 17.2-17.9 17.2-16.2 0-56.9-.6-81.9 1.1l-5.7-14.9c18.5-8.8 65.7-15.2 85.4-15.2z" fill="url(#f)" fill-rule="evenodd"/><path clip-rule="evenodd" d="m185.6 373.6c.5-.3 4.2-5.8 6.6-6.8 1.4-.6 3.3-1.5 4.8-.7 1.7.8 1.8 3.2 2.8 4.6.8 1.1 1.8 2 3 2.5l2.4-3.2c8.3 3.9 1.7 13.6 10.1 17.6 2 1 4.2 1.6 6 3.1 1.7 1.4 2.8 4 1.7 5.9-.4.7-4.5 3.2-8.9 2.6s-28.5-25.6-28.5-25.6z" fill="#0a3c5f" fill-rule="evenodd"/><path clip-rule="evenodd" d="m144.5 379.2c-.1-2.2.8-4.1 1.8-4.6s2.5-4.3 4.4-9.7c.9-2.5 6-3.2 8.5 1.1.8 1.4 1.6 2.3 2.5 2.3.8 0 1.6-1.4 2.4-.5.7.8.8 2.8 1 4.3.3 2.5.5 5.1.8 7.6.1.6.1 1.1.1 1.7h-21c-.3-.7-.5-1.4-.5-2.2z" fill="#0a3c5f" fill-rule="evenodd"/><path d="m127.6 274.5c-.2 3.2-.2 6.6 1.8 9.3s6.6 4.3 9.9 2.5c1.8-1 2.8-2.8 3.7-4.5 4.9-9.4 9.8-18.8 14.7-28.1 4-7.7 3.8-9.5 2.6-17.8-.6-3.8-18.4-10.7-20.4-6.6-4.7 9.3-8.1 19-10.2 28.8-1.1 5.4-1.8 10.9-2.1 16.4z" fill="url(#h)"/><path d="m267.1 289.1c.4 3.9.6 8-1.1 11.4-1.8 3.5-6.3 5.8-9.7 3.9-1.9-1.1-3-3.1-4-5.1-5.6-11-11.2-21.9-16.8-32.9-4.6-9-4.5-11.3-4-21.4.3-4.7 17.5-14.7 19.8-9.9 5.4 10.9 9.5 22.3 12.3 34.1 1.6 6.6 2.8 13.2 3.5 19.9z" fill="url(#i)"/><path clip-rule="evenodd" d="m263 258.3c-2.5-7.3-5.4-14.4-8.8-21.3-2.3-4.7-8.4-13.9-12.6-18.8-.1-.1-.1-.1-.2-.2-.3-.4-.7-.8-1.1-1.2-.3-.3-.5-.5-.8-.6-2.4-2-5.5-3.3-8.5-4.4-11.3-4.2-37.3-15-38.3-15s-26.9 10.8-38.3 15c-3.9 1.4-7.8 3.1-10.4 6.3-1.6 1.9-7.7 15.1-8.8 17.8-2.6 6.4-3.8 5.7-5.4 12.3l24.2 6.5c.7 1.9 6.3 37.4 6.2 49.7 0 3.8-2 10.2-.9 13.7 1.5 4.5 9.2 5.5 13.1 6 6.7.9 13.4 1.1 20.2.9 6.7.3 13.5 0 20.2-.9 3.9-.5 11.6-1.5 13.1-6 1.2-3.6-.8-10-.9-13.7-.1-12.3 1.7-24.7 5.2-36.5.5-1.7 1.1-3.4 1.6-5.2 1.3 2.9 2.7 5.8 4.2 8.6z" fill="url(#j)" fill-rule="evenodd"/><path d="m266.2 291.5c-2.2-3.5-6.4-5.1-10.4-5.1s-7.9 1.4-11.8 2.7c-7 2.5-14 5-21 7.5-5.3 1.9-10.5 3.8-15.8 5.6-2 .7-3.9 1.4-5.9 2.1-1.1.4-2.4.9-2.8 2-.5 1.2.1 2.7 1.2 3.4 1 .8 2.3 1 3.6 1.2 10.2 1.7 20.6 1.9 30.9.6 5.2-.7 10.3-1.7 15.4-3.1 4.3-1.2 10.4-2.4 14.1-5.2 3.4-2.5 4.9-7.8 2.5-11.7z" fill="url(#k)"/><path d="m130.5 275.5c2.3-2.8 6.5-3.8 10.3-3.5s7.3 1.8 10.8 3.2c6.3 2.7 12.7 5.3 19 8 4.8 2 9.5 4 14.3 6 1.8.8 3.6 1.5 5.4 2.3 1 .4 2.1 1 2.5 2 .4 1.1-.4 2.3-1.4 2.8-1 .6-2.3.7-3.5.8-9.7.7-19.5 0-29.1-1.9-4.8-1-9.5-2.3-14.1-3.9-4-1.4-9.6-2.9-12.8-5.5s-4-7.2-1.4-10.3z" fill="url(#l)"/><path d="m167.6 263 20 36.5 17.8-1 15.6-35.6z" fill="url(#m)"/><path d="m203.5 315.9h-15.4c-1.2 0-2.2-1-2.2-2.2l-.9-25.6c0-1.2 1-2.2 2.2-2.2h17.1c1.2 0 2.2 1 2.2 2.2l-.8 25.6c0 1.2-1 2.2-2.2 2.2z" fill="url(#n)"/><path d="m203.5 317.7h-15.4c-1.2 0-2.2-1-2.2-2.2l-.9-25.6c0-1.2 1-2.2 2.2-2.2h17.1c1.2 0 2.2 1 2.2 2.2l-.8 25.6c0 1.3-1 2.2-2.2 2.2z" fill="#243042"/><path d="m184.2 195.5c1.1-3.4 1.6-9.7 3.7-12 1.3-1.4 7.8-1.4 9.1 0 2.1 2.3 2.7 8.6 3.7 12 1.2 3.8 2.2 8.4 1 12.1-.9 2.6-2.7 4.2-4.5 4.7-1.5.4-7.9.4-9.4 0-1.9-.5-3.7-2.1-4.5-4.7-1.3-3.8-.3-8.3.9-12.1z" fill="url(#o)"/><path d="m178.5 166.9c2.1-6.2 25.7-6.2 27.9 0 1.7 4.9 1.9 10.4 1 15.6-.9 4.9-2.9 9.3-5.6 13-1.9 2.5-4.3 6.2-7.1 7.4h-4.3c-2.7-1.2-5.2-4.9-7.1-7.4-2.8-3.7-4.7-8.1-5.6-13-1.1-5.2-.8-10.7.8-15.6z" fill="url(#p)"/><path clip-rule="evenodd" d="m179.3 183.2c-.3-1.5-.9-2.8-1.2-4.3s-.8-3.1.3-4.2c1 4.5 2.9 8.9 4.3 13.2.3.9.7 1.9 1.4 2.6.9.9 2.1 1.2 3.3 1.4 1.3.2 4.8-1.2 5.2-1.2s3.9 1.5 5.2 1.2c1.2-.2 2.4-.6 3.3-1.4.7-.7 1-1.7 1.4-2.6 1.5-4.3 2.7-8.8 3.7-13.2 1.1 1 1.2 2.7.9 4.2s-.9 2.8-1.2 4.3c0 .1 0 .2-.1.3-.1 1-.1 2 .3 2.9.2.4.4.7.4 1.1s-.2.9-.2 1.3c-.4 2-1 3.9-1.7 5.8s-1.7 3.7-2.7 5.4c-.5.9-1.1 1.7-1.7 2.5-.3.3-1.4 2.3-1.8 2.3l-4.6 1.3h-2.1l-4.6-1.3c-.4 0-1.6-1.9-1.8-2.3-.6-.8-1.2-1.6-1.7-2.5-1.1-1.7-2-3.5-2.7-5.4s-1.3-3.8-1.7-5.8c-.1-.4-.3-.9-.2-1.3 0-.5.3-.7.4-1.1.4-.9.4-1.9.3-2.9-.4 0-.4-.1-.4-.3z" fill="#0a3c5f" fill-rule="evenodd"/><path clip-rule="evenodd" d="m179.4 152.1c1.9-.4 5.8.2 7.7.4 2.1.3 4.2-.3 6.5-.7 2.2-.4 4.3-1.7 6.6-1.4 2.2.3 4.4 2.4 4.1 4.8 3-1.2 6.4-.4 7.8 2.6 1.3 2.8 1.8 5.9.8 9.4-.5 2-1.2 3.2-1.9 5.2-.8 2.2.1 7.6-2.5 8.6-2 .8-3.2-15.5-8.9-15.9-3 3.3-8.1 4.1-11.9 2-1.4-.8-2.9-2-4.5-1.5-1 .3-2.3.8-3 1.8-1.6 2.2-1.1 12.3-3.3 13.9-1.2-3.6-2.8-8.6-2.7-13.8s-.6-14.3 5.2-15.4z" fill="#0a3c5f" fill-rule="evenodd"/><path d="m210 182.1c.6-1.1 1-2.3.9-3.5-.2-1.2-1.2-2.4-2.3-2.2-.7.1-1.3.6-1.6 1.3-.4.6-.5 1.4-.7 2.1-.3 1.3-.6 2.6-.8 3.8-.2 1.1-.4 2.4.5 3.1 1.5 1.1 3.4-3.5 4-4.6z" fill="#f7b68b"/><path d="m175.1 182.1c-.6-1.1-1-2.3-.9-3.5.2-1.2 1.2-2.4 2.3-2.2.7.1 1.3.6 1.6 1.3.4.6.5 1.4.7 2.1.3 1.3.6 2.6.8 3.8.2 1.1.4 2.4-.5 3.1-1.5 1.1-3.4-3.5-4-4.6z" fill="#f7b68b"/><circle cx="204.1" cy="306.7" fill="url(#q)" r="7.9"/></svg>