<svg enable-background="new 0 0 400 400" viewBox="0 0 400 400" xmlns="http://www.w3.org/2000/svg" xmlns:xlink="http://www.w3.org/1999/xlink"><linearGradient id="a"><stop offset="0" stop-color="#f9b776"/><stop offset="1" stop-color="#f47960"/></linearGradient><linearGradient id="b" gradientUnits="userSpaceOnUse" x1="30.6503" x2="27.9274" xlink:href="#a" y1="377.5774" y2="401.3416"/><linearGradient id="c" gradientUnits="userSpaceOnUse" x1="59.3347" x2="56.7876" xlink:href="#a" y1="380.6178" y2="402.8475"/><linearGradient id="d" gradientTransform="matrix(-1 0 0 1 -128.4437 0)" gradientUnits="userSpaceOnUse" x1="-170.2166" x2="-172.3409" y1="306.3659" y2="377.6797"><stop offset="0" stop-color="#679af0"/><stop offset="1" stop-color="#4f76ea"/></linearGradient><linearGradient id="e" gradientUnits="userSpaceOnUse" x1="32.591" x2="44.8016" xlink:href="#a" y1="226.9288" y2="226.9288"/><linearGradient id="f" gradientTransform="matrix(-1 0 0 1 -128.4437 0)" gradientUnits="userSpaceOnUse" x1="-156.0715" x2="-192.2847" y1="235.5706" y2="281.8994"><stop offset="0" stop-color="#ff4e62"/><stop offset="1" stop-color="#c8273a"/></linearGradient><linearGradient id="g" gradientUnits="userSpaceOnUse" x1="35.5627" x2="13.8329" xlink:href="#a" y1="289.2385" y2="307.7993"/><linearGradient id="h" gradientTransform="matrix(.9571 -.2895 .2895 .9571 677.4119 -35.1506)" gradientUnits="userSpaceOnUse" x1="802.457" x2="826.1517" xlink:href="#a" y1="-302.5195" y2="-308.2864"/><linearGradient id="i" gradientTransform="matrix(.9571 -.2895 .2895 .9571 677.4119 -35.1506)" gradientUnits="userSpaceOnUse" x1="801.6255" x2="825.3203" xlink:href="#a" y1="-305.9524" y2="-311.7194"/><linearGradient id="j"><stop offset="0" stop-color="#2b3582"/><stop offset="1" stop-color="#150e42"/></linearGradient><linearGradient id="k" gradientTransform="matrix(-.9577 .2876 .3672 1.2229 -8587.832 3123.2092)" gradientUnits="userSpaceOnUse" x1="-9135.9502" x2="-9143.9277" xlink:href="#j" y1="-222.0101" y2="-213.5781"/><linearGradient id="l" gradientTransform="matrix(-1 0 0 1 -128.4437 0)" gradientUnits="userSpaceOnUse" x1="-220.4113" x2="-219.5137" xlink:href="#a" y1="222.6448" y2="237.2314"/><linearGradient id="m" gradientTransform="matrix(.9631 -.2689 .2689 .9631 1552.7291 -1988.02)" gradientUnits="userSpaceOnUse" x1="-2056.1887" x2="-2032.9482" xlink:href="#j" y1="1718.4355" y2="1718.4355"/><linearGradient id="n" gradientTransform="matrix(.9999 -.015 .015 .9999 1435.775 -7.9837)" gradientUnits="userSpaceOnUse" x1="-1150.9441" x2="-1077.3021" xlink:href="#j" y1="215.4618" y2="250.4163"/><linearGradient id="o" gradientUnits="userSpaceOnUse" x1="339.7888" x2="312.0748" xlink:href="#a" y1="233.8304" y2="267.9009"/><linearGradient id="p" gradientUnits="userSpaceOnUse" x1="398.2598" x2="360.3474" xlink:href="#a" y1="222.8484" y2="269.4562"/><linearGradient id="q" gradientTransform="matrix(-1 0 0 1 919.6595 0)" gradientUnits="userSpaceOnUse" x1="583.6553" x2="549.2738" y1="256.1151" y2="295.1065"><stop offset="0" stop-color="#cb236d"/><stop offset="1" stop-color="#4c246d"/></linearGradient><linearGradient id="r" gradientTransform="matrix(.9602 .2794 -.2794 .9602 10161.248 1194.452)" gradientUnits="userSpaceOnUse" x1="-9690.7813" x2="-9688.7881" xlink:href="#a" y1="1839.2655" y2="1825.1091"/><linearGradient id="s" gradientTransform="matrix(-1 0 0 1 919.6595 0)" gradientUnits="userSpaceOnUse" x1="569.8409" x2="591.1335" xlink:href="#a" y1="222.4208" y2="246.9017"/><linearGradient id="t" gradientUnits="userSpaceOnUse" x1="302.8539" x2="376.4965" xlink:href="#j" y1="199.5781" y2="234.5329"/><linearGradient id="u" gradientTransform="matrix(1 -.0109 .0109 1 11001.6563 -960.6229)" gradientUnits="userSpaceOnUse" x1="-10669.0859" x2="-10650.4434" xlink:href="#a" y1="1064.6465" y2="1086.0797"/><linearGradient id="v" gradientTransform="matrix(-1 -.0095 -.0095 1 6467.6016 41.2126)" gradientUnits="userSpaceOnUse" x1="6088.2915" x2="6132.7695" xlink:href="#a" y1="431.8738" y2="353.3609"/><linearGradient id="w" gradientTransform="matrix(-1 -.0095 -.0095 1 6467.6016 41.2126)" gradientUnits="userSpaceOnUse" x1="6138.6958" x2="6072.1777" xlink:href="#a" y1="373.792" y2="395.0624"/><linearGradient id="x" gradientTransform="matrix(-1 0 0 1 919.6595 0)" gradientUnits="userSpaceOnUse" x1="584.6279" x2="551.0146" y1="295.4453" y2="351.3393"><stop offset="0" stop-color="#53d8ff"/><stop offset="1" stop-color="#3840f7"/></linearGradient><linearGradient id="y" gradientUnits="userSpaceOnUse" x1="312.452" x2="313.4907" xlink:href="#j" y1="245.369" y2="270.0402"/><linearGradient id="z" gradientUnits="userSpaceOnUse" x1="323.6584" x2="302.1338" xlink:href="#j" y1="225.8755" y2="252.3371"/><linearGradient id="A" gradientUnits="userSpaceOnUse" x1="310.1428" x2="301.782" xlink:href="#a" y1="237.8052" y2="248.0837"/><path d="m0 0h400v400h-400z" fill="none"/><g clip-rule="evenodd"><path d="m206.1 96.3c-112.4 14.9-220.8 146.4-197.1 222 12 38.7 58.2 77.7 114.5 77.7h97.5c99.3 0 258.6-336.2-14.9-299.7z" fill="#fdedff" fill-rule="evenodd"/><path d="m177.8 152.1c92.1 5 179.4 119.2 160.2 180.7-9.8 31.4-62.9 63.2-108.6 63.2h-83.2c-112.7 0-168.4-254.7 31.6-243.9z" fill="none"/><g fill-rule="evenodd"><path d="m171.3 396-12.5-36.4c-11.6-34 33.9-24 51.4-15.9l79 36.9c-18.5 9.4-39.8 15.4-59.7 15.4zm96.8-46.8c-46.4-22.2-79.8-41.1-131.3-20.1-26 10.6-35.4 2.4-49-18.6-11.2-17.3-24.4-22.1-41.7-26.1-.6-4.2-1-8.4-1.3-12.7 22.4 4.8 38.7 10.1 53 32.2 9.1 14 16.9 21.2 34.4 14 54.9-22.4 90.8-3.6 140.3 20.1 15.4 7.3 30.6 15 45.8 22.7-3.2 2.9-6.7 5.7-10.2 8.3-13.2-6.7-26.5-13.3-40-19.8z" fill="#f0c8f7"/><path d="m125.6 299 31.3 97h-10.6c-.7 0-1.3 0-2 0l-15.6-48.2 3 9.2-45.7 11.6c-3.1-3.2-6.1-6.6-8.9-10.1l50.9-13-41.3-127.9-.2-.5-.1-.4-5.7-38.6c3.5-2.9 7.2-5.6 11-7.9l4.7 31.6 101.6-14-4.5-33.7c3.1.6 6.3 1.3 9.4 2.1l4.1 30.4 47.2-6.5c3.6 2.4 7.1 5 10.6 7.7l-56.6 7.8 10.9 81.1 108.8-12.1c1.8 3.9 3.5 7.7 5 11.6zm73.6-102.3-101.5 14-.9-6.2 1.5 10.1 23.5 72.8 88.3-9.8z" fill="#f8e0fb"/><path d="m78.8 319.2 6.2 25.7-15 3.6c-5-7.6-9.2-15.7-12.7-24.1zm192.3-58.1-3.2-25.2 39.4-5c5.7 7.5 10.8 15.4 15.4 23.7zm16.9-52.7c1 6.1 0 12.8-3.2 17.8l-62 7.8-3.9-31.1 55.8-7c4.6 3.9 9 8.1 13.3 12.5zm-169.8 10.8 28.9-3.6 7.5 59.4-28.8 3.6zm36.3-4.6 37.1-4.7 3.4 26.7-37.1 4.7zm44.6 54.9-37.1 4.7-3.4-26.7 37.1-4.7zm25-28.1 35.1-4.4 3.2 25.2-35.1 4.4zm110.2 100.2c-.1.1-.1.2-.2.4l-25.3 3.2-2.3-18.3 25.5-3.2zm-19.2-23.5-43.4 5.5-1.3-10.5-17.2 2.2-2.3-18.3 60.6-7.6zm-130.6-138.4-19.8 2.4-1.6-12.9-38.7 4.8 1.6 12.9-20.5 2.5-3.1-25.1c19.5-9.2 44.4-13.9 75.4-12.2 1.1.1 2.2.1 3.3.2zm27-21c9.4 3.1 18.4 7.1 27.1 11.8l.2 1.9-25.2 3.2zm109.6 129.4 15.2-1.9c3 10 4.5 19.7 4.4 28.8l-16 2z" fill="#f8e0fb"/><path d="m165.1 396h-44.4c-7.2-.2-12.8-6.2-12.6-13.4.2-6.6 5.4-12 12-12.5 2.8-11 13.9-17.7 24.9-14.9 5.1 1.3 9.4 4.4 12.3 8.8 2.3-1.2 4.9-1.8 7.6-1.8 9.4.1 16.9 7.8 16.7 17.2 0 9-7.3 16.4-16.5 16.6z" fill="#2ad271"/><path d="m291.8 396h-29.7c-6.2-.1-11.2-5.3-11.1-11.5.1-6.1 5.1-11 11.2-11.1 1.8 0 3.5.4 5.1 1.2 4.1-6.4 12.6-8.2 19-4.1 2.9 1.9 5 4.8 5.9 8.2 4.8.4 8.3 4.5 8 9.3-.4 4.4-4 7.9-8.4 8z" fill="#2ad271"/><path d="m98.4 190.4c5.9-5.7 6-15.1.3-21-.1-.1-.2-.2-.3-.3-6-5.9-15.6-5.9-21.6 0-5.9 5.7-6 15.1-.3 21 .1.1.2.2.3.3l10.8 10.6zm-16.2-16c-2.9 2.9-3 7.6-.1 10.5 0 0 .1.1.1.1 3 2.9 7.8 2.9 10.8 0 2.9-2.9 3-7.6.1-10.5 0 0-.1-.1-.1-.1-3-2.9-7.8-2.9-10.8 0z" fill="#54bafd"/><path d="m300.7 205.7c-4.9-4.7-5.1-12.5-.4-17.4.1-.1.2-.2.4-.4 5.1-4.9 13.1-4.9 18.2 0 4.9 4.7 5.1 12.5.4 17.4-.1.1-.2.2-.4.4l-9.1 8.9zm13.6-13.3c2.4 2.3 2.5 6.2.2 8.7-.1.1-.1.1-.2.2-2.5 2.4-6.6 2.4-9.1 0-2.4-2.3-2.5-6.2-.2-8.7l.2-.2c2.6-2.4 6.6-2.4 9.1 0z" fill="#ff8e45"/><path d="m147.5 224.2c-1.6 0-3.2 0-4.8-.2l.2-2.5c2.6.2 5.2.2 7.8 0l.2 2.5c-1.1.1-2.2.2-3.4.2zm11.6-1.6-.6-2.4c2.5-.7 5-1.5 7.4-2.5l1 2.3c-2.6 1-5.2 1.8-7.8 2.6zm-24.4-.2c-2.6-.8-5.2-1.7-7.7-2.9l1.1-2.3c2.4 1.1 4.8 2 7.3 2.7zm39.4-6-1.2-2.2c2.2-1.2 4.5-2.6 6.8-4.1l1.4 2.1c-2.4 1.5-4.7 2.9-7 4.2zm-54.2-.8c-2.2-1.4-4.4-3-6.6-4.7l1.5-2c2.2 1.7 4.3 3.2 6.4 4.6zm67.7-8.2-1.5-2c.8-.6 1.6-1.3 2.5-1.9 1.3-1 2.6-2 3.8-3l1.5 2c-1.3 1-2.5 2-3.8 3-.8.7-1.6 1.3-2.5 1.9zm-80.5-1.7c-1.9-1.7-3.8-3.6-5.8-5.6l1.8-1.7c1.9 2 3.8 3.8 5.7 5.5zm93.2-8.1-1.5-2c2.2-1.7 4.4-3.3 6.4-4.8l1.5 2c-2.1 1.5-4.2 3.1-6.4 4.8zm12.9-9.4-1.4-2.1c2.3-1.6 4.6-3.1 6.7-4.5l1.3 2.1c-2.1 1.5-4.4 2.9-6.6 4.5zm78.1-5.2c-1.9-1.8-4-3.4-6.1-4.9l1.5-2c2.2 1.6 4.3 3.3 6.3 5.1zm-64.7-3.3-1.2-2.2c2.4-1.4 4.9-2.7 7.2-3.8l1.1 2.3c-2.3 1.1-4.7 2.3-7.1 3.7zm52-5.7c-2.3-1.2-4.7-2.2-7.2-3l.8-2.4c2.6.8 5.2 1.9 7.6 3.1zm-37.8-1.1-.9-2.3c2.5-1 5.1-1.8 7.8-2.4l.6 2.4c-2.5.6-5 1.3-7.5 2.3zm23-3.5c-1.6-.2-3.3-.3-5-.2-.9 0-1.9.1-2.8.1l-.2-2.5c1-.1 2-.1 3-.1 1.8 0 3.5.1 5.3.3z" fill="#54bafd"/><path d="m112.4 72.9c-.3-.3-.6-.5-1-.4-.1 0-.2 0-.3 0l-36.6 9.8c-.5.1-.9.6-.9 1.1s.3 1 .8 1.2l12.9 4.2-1.1 9c-.1.5.2.9.6 1.2.4.2.9.2 1.3-.1l4.4-3.3 4 5.6c.2.3.6.5 1 .5h.1c.4 0 .8-.3 1-.6l13.9-26.7c.3-.6.2-1.1-.1-1.5zm-4 4.1-11 21.1-7-9.8zm-17.1 16.5-2.3 1.7.5-4.1zm-12.2-9.9 25.1-6.7-15.6 9.8z" fill="#f7c7ff"/></g></g><circle cx="375.7" cy="120.5" fill="none" r="11" stroke="#daf2ff" stroke-width="7"/><path d="m26.9 383.8 1.3 6.4c.1.5.5.8.9.9.5.1 1.3.1 2.1 0 .7-.1 1.2-.8 1-1.6l-.9-5.7z" fill="url(#b)"/><path d="m56.2 383.3c0 .3.6 4.6.8 6.3 0 .4.3.7.7.8.7.1 1.7.1 2.6 0 .5-.1.9-.6.9-1.1v-6.8z" fill="url(#c)"/><path d="m21.5 396.1c1.6-4.6 6.7-6.1 6.7-6.1l4.2-.6c1.8 4 2.9 6 2.6 7.1v.1c-.1.4-.5.7-1 .7-3.6.6-9.3.1-11.7-.1-.5-.1-.9-.4-.9-.8.1-.2.1-.3.1-.3z" fill="#232551"/><path d="m56.9 389.1 3.8.1c8 1.5 12 5 13.6 6.7 0 0 0 .1.1.1.2.4-.1.9-.7.9l-17.9.1c-.3 0-.6-.2-.6-.5s0-.5 0-.8c0-4.2 1.7-6.6 1.7-6.6z" fill="#232551"/><path d="m29.5 299.2s-6.1 54.3-2.7 88.3c0 0 4.1 0 6.1-.7 0 0 6.4-53.1 8.4-68.3.1-.6.9-.6 1 0 2.5 12.8 12.5 62.9 13.7 67.7 0 0 3.4 1.4 6.1 0 0 0-5.4-72.7-9.5-85.6z" fill="url(#d)"/><path d="m35.2 217.5-2.6 17.4s7.2 3.3 12.2-.1l-1.1-12.3z" fill="url(#e)"/><path d="m17.2 236.1s5.6-.9 13.6-1.3c2.6-.1 4.9 1.1 7.9 1.1 2.2 0 4.9-1.2 7.2-1.1 5.8.3 11.9 1.1 17.5 2.6v.1c.1-.1.1-.1.1-.1s8.3 7.9 11 21.8c2.7 14 9.2-19.7 9.2-19.7h6.6s2.5 34.7-16.1 37.5c-3.5.5-7.1-.9-9.3-3.7-1.3-1.7-3-4-4.6-6.5-1.9 9.6-5.2 25.3-7.9 33.8 0 0-15.6 2.7-23.1-1.4 0 0-5.8-34.9-9.2-41.6-13.4 20.3 4.2 35.2 4.2 35.2v3.4c-47.1-16.7-7.1-60.1-7.1-60.1z" fill="url(#f)"/><path d="m24.7 293.1s6.1-4.1 8.8-2.7 2.7 3.4 2.7 3.4-1.4 2.7-3.4 2-6.8.7-8.8 0c0 0-.7-2.7.7-2.7z" fill="url(#g)"/><path d="m50.4 208.4c.1.2-.3 10-.5 16.1-.1 2.5-2.4 4.4-4.9 4l-2.3-.3c-4.2-.6-7.2-4.4-7-8.6l.6-11c.1 0 12.7-4.5 14.1-.2z" fill="url(#h)"/><path d="m36.7 221.6s1-5.3-1-6.3-4.7.1-3.5 3.7c1.4 4.4 4.5 2.6 4.5 2.6z" fill="url(#i)"/><path d="m90.8 217.6-8.6 2.9c-1 .3-1.8 1.4-1.8 2.7l.4 14.4c-.1 2.3 1.7 4.2 3.5 3.7l6.9-2.4c.7-.2 1.1-.9 1.1-1.8l.2-17.9c-.1-1-.9-1.9-1.7-1.6z" fill="url(#k)"/><path d="m92.4 236.1s2.7-8.6 1.3-10.1-4.1-5.5-4.3-2.2c-.1 3.3-1.8 17.5 3 12.3z" fill="url(#l)"/><path d="m41.2 212.2v8.6.3c.2.6 1 2.8 3.2 1.9 2-.9 3.8-1.6 5.2-1.4.6.1 1 .7 1 1.3-.1 1.5-.4 5-1.2 8-.1.6-.7 1-1.3.9-1.8-.3-5.7-1-8.7-2.3-.4-.2-.7-.6-.7-1-.2-2.1-.8-8.6-1.2-10.4-.4-1.7-2.6-2.4-3.6-2.7-.3-.1-.6-.3-.7-.6-.6-1-1.5-3.4 1.5-4.8.6-.3.9-1 .6-1.6-.6-1.2-1.1-3.1 1.2-4.5s4.2-.3 5.4.6c.4.4 1.1.4 1.5 0 .3-.2.6-.3 1.1-.1.6.3 1.4-.1 1.6-.7.4-1.3 1.4-2.7 3.9-2.6 4.3.2 5.4 4.8 4.6 7.6-.8 2.9-5.4 2.4-7.8 1.3-1.9-.8-3.9.6-4.8 1.3-.6.1-.8.5-.8.9z" fill="url(#m)"/><path d="m337.7 220.5s-4.1-10 11.3-8 11.6 7.8 12.8 12.3 7.7 9.7 25.6 16.7 12.6 26 4.6 32.4c-8.1 6.3-12.4 2.1-14.3 13s-9.3 19.8-18.7 10.5-19.9-20.2-17-34.5c3-14.3-.4-11.6-6.2-18.2-5.7-6.6 6.5-12.9 1.9-24.2z" fill="url(#n)"/><path d="m341.1 247.2c-2.4-2.5-4.8 3.5-5.4 5-1.6 3.8-3.3 7.1-6.6 9.7-2.1 1.6-4.9 2.6-7.5 1.9-9.5-2.8-9.6-10.4-9.8-16.1.2-1.6-.8-3.2-1.9-3.7-1.4-.6-1.9-2-1.9-2s-.9 2.1.2 3c.4.3.5.7.5 1.1-.1 0-.3 0-.4-.1-2.9-.4 0 3.7 0 3.7s-2.8 15 9.9 20.9c6.3 2.9 11.1 2.2 14.4.8 1.7-.6 3.1-1.6 4.3-2.9.5-.5.7-.8.7-.8 5-6.5 5.9-18.1 3.5-20.5z" fill="url(#o)"/><path d="m390.1 233c-.2-.5-.9-.4-1.1.1-.5 1.9-1.8 5.1-4.4 6.3-.1 0-.2 0-.3 0-.1-.1-.1-.2-.1-.3 0-.2.1-.5.2-.7.3-.5.3-1.1.1-1.7-.1-.2-.3-.4-.5-.4s-.5.1-.6.3c-.2.4-.5.8-.9 1.2-1 .8-1.5 2.6-.8 4.1 1.4 5.5 3.6 12.9-4.8 18.2-8.3 5.4-20.1-10.1-20.1-10.1l-.5 14s15.3 11.1 25.8 1.8 3.5-22.9 3.5-22.9 8-3.1 4.5-9.9z" fill="url(#p)"/><path d="m341.3 246.3c2.5-.7 9.7-2.1 16.6 4.2 1.2 1.1 1.6 2.7 1.2 4.3-1.9 6.8-6.7 27-2.5 35.7 0 0-7.6 8.3-15.8 1.6 0 0-3.7-16.1-8.5-23.2-3.3-4.9 5.3-18.3 7.5-21.6.4-.5.9-.8 1.5-1z" fill="url(#q)"/><path d="m348.1 232.7s3.7 10.4 4 15c0 0-4.1 1.9-7.9-1.3 0 0-.4-10.4-1-12.3z" fill="url(#r)"/><path d="m340.2 222.3c.4-1.5 1.5-2.6 3-3 2-.5 4.7-1 6.5 0 3 1.7 3 9.4 3 9.4s-3.8 11.2-10.4 9.1c-5.2-1.6-3.3-11.1-2.1-15.5z" fill="url(#s)"/><path d="m355 218.4c-1.8-4.4-7.5-3.1-7.5-3.1s-4.4 1-5 3.1c-.3.9 1 1.8 2.6 2.5 3.6 1.5 6.3 4.8 7 8.7l.2.9c-.1-.1 4.5-7.7 2.7-12.1z" fill="url(#t)"/><path d="m349.5 229.8s2.3-5.2 4.6-3c2.2 2.3-1.8 5.7-3.8 4.9z" fill="url(#u)"/><path d="m331.3 325.9c0 .7-1.3 6.5-2 9.6-.3 1.2-.1 2.5.5 3.7l24.2 40.7c.3.5.5 1 .6 1.6.4 1.9 1.4 6.6.9 10.9l-1.3 2.6 5.4-1.2 1.2-14.5-1.5-.9c-1.3-.8-2.4-2-2.9-3.5-2.2-5.3-7.6-18.9-9-25.5-1.6-7.5-9.9-13.6-9.9-13.6l1.5-3.5z" fill="url(#v)"/><path d="m365.8 388.8s-2.9-4.6-3.3-6.4c-.3-1.8-1.3-5-3.1-4 0 0-.8 8.8-.6 12.2.3 3.4-3.9 3.3-3.9 3.3s-1.1.2-2 1c-.6.6-.2 1.6.7 1.6 1.4.1 3.5.1 5.8-.3.8-.2 1.4-.8 1.4-1.6l.6-10.1 3.7 4.7z" fill="#4b266c"/><path d="m345.7 332.4s.9 36.4 1 41.6-.8 16.6-6 20.1l2.3 1.7s2.8-2.4 5.6-7c3.1-5.2 4-6.1 4-6.1l-1-2.1c-.5-.9-.6-2-.4-3 1.1-5.4 4.9-23.5 5.9-27.4 1.2-4.6 1.3-10.7-2.9-15.8-4.3-5.2-8.5-2-8.5-2z" fill="url(#w)"/><path d="m350.5 397.4c.2 0 .3-.1.3-.3.2-1.2.9-6.1 1.5-7.3.7-1.4 2.9-7.5 0-8 0 0-7.2 10.4-8.5 11.9-1.4 1.4-3.1.5-3.1.5s-1.3.4-2.3 1.7c-.5.6 0 1.5.7 1.5h4.8c1.4 0 2.7-.8 3.2-2.1.8-2.1 2.3-5.2 4-6.6l-.9 8.4c0 .2.1.3.3.3z" fill="#4b266c"/><path d="m339.7 288.2s1.1 3.5-.6 9.2l-10.3 36.1c-.2.6.1 1.2.7 1.4 3.1 1.1 13.3 4.2 27.2 3.3.7 0 1.3-.5 1.4-1.2.9-4.1 4-18.2 4.7-21.1 2.4-11 5.2-22.9-6.8-30-5.6 2.3-10.8 3.7-16.3 2.3z" fill="url(#x)"/><path d="m318.7 255.8c.3-.7.3-1.7.2-2.5-.2-1.8-.2-3.5-.2-5.3-.1-4.6 0-9.2-.4-13.8-.1-1 0-2-.1-3-.2-2.5-1.7-3.2-4.1-3.8-2.1-.4-4.3-1.1-6.5-.6-.8.2-1.7.6-1.8 1.5-.4 3.5-.3 26.8 4 27.4 1.4.2 2.9.5 4.3.7 1 .2 2.4.6 3.4.2.6 0 1-.4 1.2-.8z" fill="url(#y)"/><path d="m317 255.8c.3-.7.3-1.7.2-2.5-.2-1.8-.2-3.5-.2-5.3-.1-4.6 0-9.2-.4-13.8-.1-1 0-2-.1-3-.2-2.5-1.7-3.2-4.1-3.8-2.1-.4-4.3-1.1-6.5-.6-.8.2-1.7.6-1.8 1.5-.4 3.5-.3 26.8 4 27.4 1.4.2 2.9.5 4.3.7 1 .2 2.4.6 3.4.2.6 0 1-.4 1.2-.8z" fill="url(#z)"/><path d="m304.6 249.3s-.8-.5-1.4-3.7-1.3-5.1 0-6.5c1.3-1.5 3.2-1.5 3.2 0s-.3 4.3-.1 6.5c.3 2.2-.3 7.4-1.7 3.7z" fill="url(#A)"/></svg>