<svg enable-background="new 0 0 130.4 135.4" viewBox="0 0 130.4 135.4" xmlns="http://www.w3.org/2000/svg" xmlns:xlink="http://www.w3.org/1999/xlink"><linearGradient id="a"><stop offset="0" stop-color="#ff8a1d"/><stop offset="1" stop-color="#ffd21e"/></linearGradient><linearGradient id="b" gradientUnits="userSpaceOnUse" x1="14.3295" x2="106.361" xlink:href="#a" y1="107.8463" y2="15.8148"/><linearGradient id="c" gradientUnits="userSpaceOnUse" x1="99.7578" x2="22.4453" xlink:href="#a" y1="24.5482" y2="101.8607"/><path clip-rule="evenodd" d="m110.4 28c-19 0-33.5-5.4-45.8-17.3-12.3 11.9-26.8 17.3-45.8 17.3 0 31-6.4 75.5 45.8 93.6 52.3-18.1 45.8-62.5 45.8-93.6z" fill="url(#b)" fill-rule="evenodd"/><path clip-rule="evenodd" d="m103.1 33.7c-15.9 0-28.1-4.7-38.4-15-10.3 10.3-22.5 15-38.4 15 0 26.9-5.4 65.5 38.4 81.2 43.8-15.7 38.4-54.3 38.4-81.2z" fill="url(#c)" fill-rule="evenodd"/><path d="m82.4 60.2-6.4-6.6-15.9 16.2-8.6-8.8-6.5 6.6 9.3 9.5 5.8 5.9 6.5-6.6z" fill="#fff"/><path clip-rule="evenodd" d="m83.4 0c-1 0-1.9.8-1.9 1.9 0 1 .8 1.9 1.9 1.9 1 0 1.9-.8 1.9-1.9s-.8-1.9-1.9-1.9zm-80.9 18.5c-1 0-1.9.8-1.9 1.9 0 1 .8 1.9 1.9 1.9 1 0 1.9-.8 1.9-1.9-.1-1-.9-1.9-1.9-1.9zm126.7 50.7c-.7 0-1.2.6-1.2 1.2 0 .7.6 1.2 1.2 1.2.7 0 1.2-.6 1.2-1.2s-.5-1.2-1.2-1.2zm-128 34c-.7 0-1.2.6-1.2 1.2 0 .7.6 1.2 1.2 1.2.7 0 1.2-.6 1.2-1.2.1-.6-.5-1.2-1.2-1.2zm105.1 27.2c-1.4 0-2.5 1.1-2.5 2.5s1.1 2.5 2.5 2.5 2.5-1.1 2.5-2.5-1.1-2.5-2.5-2.5z" fill="#ffc61e" fill-rule="evenodd"/></svg>