<?xml version="1.0" encoding="UTF-8"?>
<svg width="312px" height="152px" viewBox="0 0 312 152" version="1.1" xmlns="http://www.w3.org/2000/svg" xmlns:xlink="http://www.w3.org/1999/xlink">
    <!-- Generator: Sketch 53 (72520) - https://sketchapp.com -->
    <title>Slice 1</title>
    <desc>Created with Sketch.</desc>
    <g id="Page-1" stroke="none" stroke-width="1" fill="none" fill-rule="evenodd">
        <g id="Group-324">
            <path d="M263.9118,61.8411 C277.3418,61.8411 288.2668,72.7671 288.2668,86.1971 C288.2668,99.6271 277.3418,110.5521 263.9118,110.5521 C250.4818,110.5521 239.5568,99.6271 239.5568,86.1971 C239.5568,72.7671 250.4818,61.8411 263.9118,61.8411 M263.9118,133.8191 C272.8068,133.8191 281.1358,131.3621 288.2668,127.0991 L288.2668,134.4951 L311.5338,134.4951 L311.5338,0.8571 L288.2668,0.8571 L288.2668,45.2941 C281.1358,41.0311 272.8068,38.5741 263.9118,38.5741 C237.6528,38.5741 216.2888,59.9381 216.2888,86.1971 C216.2888,112.4561 237.6528,133.8191 263.9118,133.8191" id="Fill-310" fill="#FFFFFF"></path>
            <path d="M147.6164,117.656 C144.7624,113.668 143.0764,108.79 143.0764,103.523 C143.0764,100.151 143.7654,96.938 145.0104,94.015 C142.0874,95.259 138.8744,95.948 135.5034,95.948 C130.2364,95.948 125.3574,94.262 121.3684,91.408 C120.3544,95.277 119.8094,99.335 119.8094,103.522 C119.8094,108.281 120.5164,112.873 121.8154,117.209 C126.1524,118.509 130.7434,119.216 135.5034,119.216 C139.6894,119.216 143.7474,118.671 147.6164,117.656 M167.4314,55.9 C172.1914,55.9 176.7834,56.606 181.1194,57.906 C182.4184,62.242 183.1254,66.834 183.1254,71.593 C183.1254,75.78 182.5804,79.838 181.5664,83.706 C177.5774,80.853 172.6994,79.167 167.4324,79.167 C164.0614,79.167 160.8474,79.856 157.9254,81.1 C159.1694,78.177 159.8584,74.965 159.8584,71.593 C159.8584,66.326 158.1724,61.448 155.3184,57.459 C159.1864,56.444 163.2454,55.9 167.4314,55.9" id="Fill-312" fill="#FFFFFF"></path>
            <polygon id="Fill-314" fill="#FFFFFF" points="86.6457 40.6189 72.9047 40.6189 0.4657 40.6189 0.4657 63.1479 0.4657 63.8869 47.5617 63.8869 0.4657 122.2919 0.4657 134.4959 14.2077 134.4959 86.6457 134.4959 86.6457 111.9639 86.6457 111.2279 39.5487 111.2279 86.6457 52.8229"></polygon>
            <path d="M157.9255,81.0999 C159.1695,78.1779 159.8585,74.9649 159.8585,71.5939 C159.8585,66.3259 158.1725,61.4479 155.3185,57.4589 C138.7535,61.8039 125.7135,74.8439 121.3685,91.4089 C125.3585,94.2619 130.2365,95.9489 135.5035,95.9489 C138.8745,95.9489 142.0875,95.2589 145.0095,94.0159 C147.4775,88.2189 152.1285,83.5669 157.9255,81.0999" id="Fill-316" fill="#E41C16"></path>
            <path d="M181.1193,57.9055 C182.4183,62.2415 183.1253,66.8345 183.1253,71.5935 C183.1253,75.7795 182.5803,79.8385 181.5663,83.7065 C187.7473,88.1285 191.7873,95.3605 191.7873,103.5225 C191.7873,116.9525 180.8623,127.8775 167.4323,127.8775 C159.2703,127.8775 152.0373,123.8375 147.6163,117.6555 C143.7473,118.6705 139.6893,119.2155 135.5033,119.2155 C130.7443,119.2155 126.1523,118.5085 121.8153,117.2095 C127.6973,136.8375 145.8903,151.1445 167.4313,151.1445 C193.7333,151.1445 215.0543,129.8225 215.0543,103.5215 C215.0543,81.9795 200.7473,63.7875 181.1193,57.9055" id="Fill-318" fill="#E41C16"></path>
            <path d="M145.0099,94.0154 C143.7659,96.9384 143.0769,100.1514 143.0769,103.5224 C143.0769,108.7894 144.7629,113.6674 147.6159,117.6564 C164.1809,113.3114 177.2209,100.2714 181.5659,83.7064 C177.5769,80.8524 172.6999,79.1664 167.4319,79.1664 C164.0609,79.1664 160.8479,79.8564 157.9259,81.0994 C155.4589,86.8964 150.8069,91.5484 145.0099,94.0154" id="Fill-320" fill="#5CD1FF"></path>
            <path d="M119.8093,103.5218 C119.8093,99.3348 120.3543,95.2768 121.3693,91.4088 C115.1873,86.9868 111.1473,79.7558 111.1473,71.5938 C111.1473,58.1638 122.0743,47.2378 135.5033,47.2378 C143.6653,47.2378 150.8973,51.2778 155.3183,57.4588 C159.1873,56.4438 163.2453,55.8998 167.4323,55.8998 C172.1913,55.8998 176.7833,56.6058 181.1193,57.9058 C175.2383,38.2778 157.0453,23.9708 135.5033,23.9708 C109.2023,23.9708 87.8803,45.2918 87.8803,71.5928 C87.8803,93.1348 102.1883,111.3278 121.8153,117.2098 C120.5163,112.8738 119.8093,108.2808 119.8093,103.5218" id="Fill-322" fill="#5CD1FF"></path>
        </g>
    </g>
</svg>