<svg enable-background="new 0 0 400 400" viewBox="0 0 400 400" xmlns="http://www.w3.org/2000/svg" xmlns:xlink="http://www.w3.org/1999/xlink"><linearGradient id="a" gradientTransform="matrix(1 0 0 -1 0 400)" gradientUnits="userSpaceOnUse" x1="48.2585" x2="328.9305" y1="21.7878" y2="302.4598"><stop offset="0" stop-color="#ffefff"/><stop offset="1" stop-color="#f1c8ff"/></linearGradient><linearGradient id="b" gradientTransform="matrix(1 0 0 -1 0 400)" gradientUnits="userSpaceOnUse" x1="103.5" x2="294.5" y1="71.2573" y2="262.2573"><stop offset="0" stop-color="#674589"/><stop offset="1" stop-color="#854ebd"/></linearGradient><linearGradient id="c"><stop offset="0" stop-color="#fbe3ff"/><stop offset="1" stop-color="#ecbefb"/></linearGradient><linearGradient id="d" gradientTransform="matrix(1 0 0 -1 0 400)" gradientUnits="userSpaceOnUse" x1="353.2515" x2="391.2515" xlink:href="#c" y1="30.2558" y2="68.2558"/><linearGradient id="e" gradientTransform="matrix(1 0 0 -1 0 400)" gradientUnits="userSpaceOnUse" x1="7.1255" x2="64.1255" xlink:href="#c" y1="42.8818" y2="99.8818"/><linearGradient id="f"><stop offset="0" stop-color="#ff8a1d"/><stop offset="1" stop-color="#ffd21e"/></linearGradient><linearGradient id="g" gradientTransform="matrix(1 0 0 -1 0 400)" gradientUnits="userSpaceOnUse" x1="149.1664" x2="241.1979" xlink:href="#f" y1="167.794" y2="259.8255"/><linearGradient id="h" gradientTransform="matrix(1 0 0 -1 0 400)" gradientUnits="userSpaceOnUse" x1="234.5269" x2="157.2144" xlink:href="#f" y1="251.1599" y2="173.8474"/><linearGradient id="i"><stop offset="0" stop-color="#f9b776"/><stop offset="1" stop-color="#f47960"/></linearGradient><linearGradient id="j" gradientTransform="matrix(-1 0 0 1 -1057.1838 0)" gradientUnits="userSpaceOnUse" x1="-1232.8945" x2="-1245.4637" xlink:href="#i" y1="232.153" y2="270.6802"/><linearGradient id="k" gradientTransform="matrix(-1 0 0 1 -1057.1838 0)" gradientUnits="userSpaceOnUse" x1="-1235.9666" x2="-1210.3584" xlink:href="#i" y1="366.0638" y2="366.0638"/><linearGradient id="l" gradientTransform="matrix(-1 0 0 1 -1057.1838 0)" gradientUnits="userSpaceOnUse" x1="-1251.5055" x2="-1236.6764" xlink:href="#i" y1="367.9679" y2="367.9679"/><linearGradient id="m" gradientTransform="matrix(-1 0 0 1 -1057.1838 0)" gradientUnits="userSpaceOnUse" x1="-1283.4503" x2="-1254.4194" xlink:href="#i" y1="256.7098" y2="256.7098"/><linearGradient id="n" gradientTransform="matrix(-1 0 0 1 -1057.1838 0)" gradientUnits="userSpaceOnUse" x1="-1251.6375" x2="-1197.2108" y1="272.4915" y2="380.288"><stop offset="0" stop-color="#cb236d"/><stop offset="1" stop-color="#4c246d"/></linearGradient><linearGradient id="o" gradientTransform="matrix(-1 0 0 1 -1057.1838 0)" gradientUnits="userSpaceOnUse" x1="-1264.5983" x2="-1217.041" y1="300.9759" y2="354.6099"><stop offset="0" stop-color="#53d8ff"/><stop offset="1" stop-color="#3840f7"/></linearGradient><linearGradient id="p" gradientTransform="matrix(-1 0 0 1 -1057.1838 0)" gradientUnits="userSpaceOnUse" x1="-1247.01" x2="-1237.9354" xlink:href="#i" y1="270.9626" y2="270.9626"/><linearGradient id="q" gradientTransform="matrix(-1 0 0 1 -1057.1838 0)" gradientUnits="userSpaceOnUse" x1="-1232.5875" x2="-1166.5358" xlink:href="#i" y1="259.2355" y2="263.727"/><linearGradient id="r" gradientUnits="userSpaceOnUse" x1="185.9308" x2="149.421" y1="250.9229" y2="321.8023"><stop offset="0" stop-color="#2b3582"/><stop offset="1" stop-color="#150e42"/></linearGradient><path d="m0 0h400v400h-400z" fill="none"/><path clip-rule="evenodd" d="m111.8 64.6c125.8-57.8 278.2 113.1 287.6 195.7 5.6 49.3-27.8 112.1-95.1 127.2-53.4 12-101.2-6.9-151.4 4.4-118.7 26.7-168.9-268.6-41.1-327.3z" fill="#fdf2ff" fill-rule="evenodd"/><path clip-rule="evenodd" d="m84.4 312.9c-78-134.9-39-202.4 117.1-202.4s195.2 67.5 117.1 202.4c-68.2 111.7-184 96.7-234.2 0z" fill="url(#a)" fill-rule="evenodd"/><path d="m118.5 71.5h161c8.3 0 15 6.7 15 15v293.5c0 8.3-6.7 15-15 15h-161c-8.3 0-15-6.7-15-15v-293.5c0-8.3 6.7-15 15-15z" fill="url(#b)"/><g clip-rule="evenodd" fill-rule="evenodd"><path d="m277.7 376h-156.6c-5.1 0-9.2-4.1-9.2-9.2v-268c0-5.1 4.1-9.2 9.2-9.2h156.5c5.1 0 9.2 4.1 9.2 9.2v268c.1 5.1-4.1 9.2-9.1 9.2z" fill="#fbf7da"/><path d="m277.7 376h-128.7l-16.4-47.8c-12.4-36.3 36.2-25.6 54.8-16.9l99.4 46.4v9.2c.1 5-4.1 9.1-9.1 9.1z" fill="#2ad271"/><path d="m286.9 242.6-175 19.4v-12.9l174.9-19.4v12.9zm-175 66.7 21.5 66.6h-12.3c-.4 0-.8 0-1.2-.1l-8-24.8z" fill="#ffe46f"/><path d="m249.2 317.1c-48.7-23.2-83.9-43.1-137.3-22.5v-13.7c54.4-19.2 91.6.2 142.1 24.3 11 5.3 22 10.6 32.8 16.1v14.3c-12.4-6.2-25-12.4-37.6-18.5z" fill="#1bbffa"/><path d="m286.9 218.9-34.5 4.3-3.4-26.9 37.8-4.7v27.3zm-86-24.6-4.2-33.2 66.1-8.3c8.8 7.4 10.6 23.3 4.2 33.2zm53.8-70.2-26.9 3.4-4.7-37.4 3.4-.4h23.9zm-141.2-30.4c1.7-2.5 4.6-4 7.6-4h25.2zm-1.6 82 8.1-1 8 63.3-16.1 2zm63.7 56.4-39.6 5-3.6-28.4 39.6-5zm-4.4-34.9-39.6 5-3.6-28.4 39.6-5zm-11.2-60.7-21.1 2.6-1.7-13.7-25.2 3.1v-24.1l43.4-5.3zm58-7.8-26.9 3.4-4.7-37.4 26.9-3.4zm-15.8 73.6 37.4-4.7 3.4 26.9-37.4 4.7zm49.4 76.3-18.3 2.3-2.5-19.5 56.1-7v31.2l-33.9 4.2z" fill="#d3ddda"/><path d="m277.4 89.6c2.1 9.3 5.3 18.3 9.5 26.9v25.6c-.8-1.2-1.6-2.4-2.4-3.6.2.3.4.7.6 1l-99.8 13.7 11.6 86.4-9.6 1.1-11.6-86.2-63.8 8.8v-9.7l62.5-8.6-7.4-55.4h9.7l7.3 54.1 95.6-13.2c.1.3.3.5.5.8-7.5-12.9-12.9-27-15.9-41.7z" fill="#fff"/></g><path d="m365 381h4v14h-4z" fill="#9c81b6"/><path clip-rule="evenodd" d="m348.5 386 19-80 19 80z" fill="url(#d)" fill-rule="evenodd"/><path d="m25 374.5h6v20.5h-6z" fill="#9c81b6"/><g clip-rule="evenodd" fill-rule="evenodd"><path d="m0 382 28.5-121 28.5 121z" fill="url(#e)"/><path d="m245.2 152.3c-19 0-33.5-5.4-45.8-17.3-12.3 11.9-26.8 17.3-45.8 17.3 0 31-6.4 75.5 45.8 93.6 52.3-18.1 45.8-62.5 45.8-93.6z" fill="url(#g)"/><path d="m237.9 158c-15.9 0-28.1-4.7-38.4-15-10.3 10.3-22.5 15-38.4 15 0 26.9-5.4 65.5 38.4 81.2 43.8-15.7 38.4-54.3 38.4-81.2z" fill="url(#h)"/></g><path d="m217.2 184.5-6.4-6.6-15.9 16.2-8.6-8.8-6.5 6.6 9.3 9.5 5.8 5.9 6.5-6.6z" fill="#fff"/><path clip-rule="evenodd" d="m370.7 62.3h-2.1v-4.1c-.1-5.7-4.8-10.3-10.5-10.2-5.6.1-10.2 4.6-10.2 10.2v4.1h-2.1c-2.3 0-4.1 1.8-4.1 4.1v20.4c0 2.3 1.9 4.1 4.1 4.1h24.8c2.3 0 4.1-1.8 4.1-4.1v-20.4c.1-2.3-1.7-4.1-4-4.1zm-12.4 18.4c-2.3 0-4.1-1.9-4-4.1 0-2.3 1.9-4.1 4.1-4 2.2 0 4 1.9 4 4.1s-1.8 4-4.1 4zm6.4-18.4h-12.8v-4.1c.1-3.5 3-6.4 6.5-6.3s6.3 2.9 6.3 6.3z" fill="#ffecd3" fill-rule="evenodd"/><path clip-rule="evenodd" d="m16.6 117.8c-7.8 0-14.1-6.3-14.1-14.1s6.3-14.1 14.1-14.1 14.1 6.3 14.1 14.1-6.3 14.2-14.1 14.1zm0-24.5c-5.8 0-10.4 4.7-10.4 10.4s4.7 10.4 10.4 10.4 10.4-4.7 10.4-10.4-4.7-10.4-10.4-10.4z" fill="#daf2ff" fill-rule="evenodd"/><path d="m188 236.4s16.9 21.6-2.4 43.7l-7.3-.7s14-22.4 7.7-40.3l-7.2-.5c-1.3-.1-2.5-.7-3.5-1.6l-2-2.1c-.7-.7 0-2 1-1.7z" fill="url(#j)"/><path d="m178.8 342.4s-13.7 29.9-20.9 42.2c0 0-1.4 7.8 0 10.2l1.2.5-5.7-.2s-.5-10.5-.1-11.1 1.2-.5 1.2-.5 2.4-19.3 9.5-23.4l6.8-23.5z" fill="url(#k)"/><path d="m161.5 396.9c0 .1-4.4.1-6.8 0-.9 0-1.7-.6-1.8-1.5l-1.8-9.6c-.2-.9.4-1.8 1.3-2l1-.2s1.5 2 1 3.9-.9 6.7.3 7.3 4.5.7 4.5.7 2.3.1 2.3 1.4z" fill="#232551"/><path d="m191.8 397.1c.4.3.3.9-.3.9-4 0-13.1-.2-13.9-.5-1-.4.4-4.2 1.9-5.4l8.2 2.7z" fill="#232551"/><path d="m194.3 340.5s-8.9 42.8-11.4 51.2l5.9 3.7s-3-.5-5.2-.7-4.2-2.7-4.2-2.7l.7-1.1s2.2-42.6 1.7-47.4z" fill="url(#l)"/><path d="m216.3 240.6s1.2 22.3-19.1 33.7l4.9 11.1s18.3-11.1 17.7-41.3c0-.9.3-1.8.9-2.4l3.9-4.5c1.5-1.7 2-4.1 1.5-6.3l-.5-2.1c-.2-.7-1-1-1.6-.7l-.4.2c-1.3.8-2.3 1.9-2.9 3.3l-1.9 4.3c-.6 1.4-.9 1.7-2.1 1.6-.4 0-.8 0-1.2.1l-2 .6z" fill="url(#m)"/><path d="m197.9 272.6c-3.4.9-14.9 4-22.1 3.8l4.4 24.9-.4 4.1 14.4-.1s4-9.4 7.2-14.1c.9-1.4.2-3-.3-4.5l.7-.5c.7-.5 1-1.4.8-2.2l-3.5-10.7c0-.5-.6-.8-1.2-.7z" fill="url(#n)"/><path d="m195.4 303.2-.3 2.5s4.1 12.2-2 40.6c0 0-13.2 3.7-24-5.2 0 0 3.1-26.8 3.9-28.1 4.2-6.2 6.9-7.6 6.9-7.6l.1-2.7c.1 0 11.7 2.1 15.4.5z" fill="url(#o)"/><path d="m189.8 274.6c.1-.1-3-9.2-3-9.2l-4.4.4-1.7 10.4c.1 0 6.9 1.4 9.1-1.6z" fill="url(#p)"/><path d="m183.5 251c.3.2 9.3 3.9 7.4 13.3-.1.6-.5 1-1 1.3-1.3.6-4.2 1.6-7.6 1.3-4.7-.5-7.8-8.7-7.7-11.2.1-2.4 6-6.5 8.9-4.7z" fill="url(#q)"/><path d="m186.5 270.7c0-2.1-.4-4-1.2-5.8-.9-2-.7-4.3.7-6 2.3-2.7 3.1-6.2 1.9-9.2-2-4.7-8.3-6.6-14.1-4.2-4.1 1.7-6.9 5.1-7.4 8.7-.3 2-1.4 3.8-3 5.1-2.3 1.8-4.1 4.2-5 7.1-.6 1.9-1.9 3.6-3.6 4.6-3.9 2.3-7.2 5.7-9.2 10.2-5 11.2.1 24.3 11.3 29.3s24.4 0 29.4-11.2c2.8-6.2 2.4-13-.3-18.7-.7-1.4-.8-3.1-.3-4.6.4-1.8.8-3.5.8-5.3z" fill="url(#r)"/></svg>