<?xml version="1.0" encoding="utf-8"?>
<!-- Generator: Adobe Illustrator 23.0.2, SVG Export Plug-In . SVG Version: 6.00 Build 0)  -->
<svg version="1.1" id="Layer_1" xmlns="http://www.w3.org/2000/svg" xmlns:xlink="http://www.w3.org/1999/xlink" x="0px" y="0px"
	 viewBox="0 0 487.6 458.8" style="enable-background:new 0 0 487.6 458.8;" xml:space="preserve">
<style type="text/css">
	.st0{fill:url(#SVGID_1_);}
	.st1{fill:url(#SVGID_2_);}
	.st2{fill:url(#SVGID_3_);}
	.st3{fill:url(#SVGID_4_);}
	.st4{fill:url(#SVGID_5_);}
	.st5{fill:url(#SVGID_6_);}
	.st6{fill:url(#SVGID_7_);}
	.st7{fill:url(#SVGID_8_);}
	.st8{fill:url(#SVGID_9_);}
	.st9{fill:url(#SVGID_10_);}
	.st10{fill:url(#SVGID_11_);}
	.st11{fill:url(#SVGID_12_);}
	.st12{fill:url(#SVGID_13_);}
	.st13{fill:url(#SVGID_14_);}
	.st14{fill:url(#SVGID_15_);}
	.st15{fill:url(#SVGID_16_);}
	.st16{fill:url(#SVGID_17_);}
	.st17{fill:url(#SVGID_18_);}
	.st18{fill:url(#SVGID_19_);}
	.st19{fill:url(#SVGID_20_);}
	.st20{fill:url(#SVGID_21_);}
	.st21{fill:url(#SVGID_22_);}
	.st22{fill:url(#SVGID_23_);}
	.st23{fill:url(#SVGID_24_);}
	.st24{font-family:'MyriadPro-Regular';}
	.st25{font-size:6.6864px;}
</style>
<g>
	<g>
		
			<linearGradient id="SVGID_1_" gradientUnits="userSpaceOnUse" x1="12394.8311" y1="-3494.0742" x2="11991.0117" y2="-3738.8132" gradientTransform="matrix(-0.9974 7.220000e-02 0.244 0.8954 13090.6045 2776.4744)">
			<stop  offset="0" style="stop-color:#53D8FF"/>
			<stop  offset="1" style="stop-color:#3840F7"/>
		</linearGradient>
		<polygon class="st0" points="100.5,327.8 121.7,416.6 172.7,364 		"/>
		<linearGradient id="SVGID_2_" gradientUnits="userSpaceOnUse" x1="214.0085" y1="492.5178" x2="304.329" y2="-353.2052">
			<stop  offset="0" style="stop-color:#53D8FF"/>
			<stop  offset="1" style="stop-color:#3840F7"/>
		</linearGradient>
		<path class="st1" d="M487.6,181.4L298.1,449c-3.6,5.1-9.2,8.6-15.4,9.5c-6.2,0.9-12.5-0.7-17.5-4.5L3.6,253.6
			c-3-2.3-4.3-6.2-3.3-9.8c1-3.6,4.1-6.3,7.9-6.7L487.6,181.4z"/>
		
			<linearGradient id="SVGID_3_" gradientUnits="userSpaceOnUse" x1="12365.3447" y1="-3498.1392" x2="11988.1162" y2="-3726.7625" gradientTransform="matrix(-0.9974 7.220000e-02 0.244 0.8954 13090.6045 2776.4744)">
			<stop  offset="0" style="stop-color:#53D8FF"/>
			<stop  offset="1" style="stop-color:#3840F7"/>
		</linearGradient>
		<polygon class="st2" points="100.5,327.8 487.6,181.4 142.7,360.3 147.5,385.2 		"/>
		
			<linearGradient id="SVGID_4_" gradientUnits="userSpaceOnUse" x1="-15880.0078" y1="-3223.9785" x2="-15707.626" y2="-3273.9065" gradientTransform="matrix(0.9974 -7.220000e-02 7.220000e-02 0.9974 16130.7422 2484.4749)">
			<stop  offset="0" style="stop-color:#53D8FF"/>
			<stop  offset="1" style="stop-color:#3840F7"/>
		</linearGradient>
		<polygon class="st3" points="167.8,379.3 121.7,416.6 142.7,360.3 		"/>
	</g>
	<g>
		<g>
			<linearGradient id="SVGID_5_" gradientUnits="userSpaceOnUse" x1="398.1411" y1="15.9129" x2="222.9965" y2="197.3951">
				<stop  offset="0" style="stop-color:#F9B776"/>
				<stop  offset="1" style="stop-color:#F47960"/>
			</linearGradient>
			<path class="st4" d="M397.4,32l-3.2-9.3c-17.9,14.3-34.6,24.1-49,30.7c0.8,6.5,3,14.5,8.5,21.1C381.1,54.9,397.4,32,397.4,32z"/>
			<linearGradient id="SVGID_6_" gradientUnits="userSpaceOnUse" x1="370.7543" y1="3.3991" x2="273.3877" y2="141.6714">
				<stop  offset="0" style="stop-color:#FDF53F"/>
				<stop  offset="1" style="stop-color:#D93C65"/>
			</linearGradient>
			<path class="st5" d="M292.7,67.4l8.2,31.6c20.2-4.5,38.1-14,52.7-24.4c-5.4-6.5-7.6-14.5-8.5-21.1
				C313.6,67.9,292.7,67.4,292.7,67.4z"/>
		</g>
		<g>
			
				<linearGradient id="SVGID_7_" gradientUnits="userSpaceOnUse" x1="15607.9561" y1="-379.3212" x2="15650.5742" y2="-379.3212" gradientTransform="matrix(0.9654 -0.261 0.261 0.9654 -14683.5674 4728.2866)">
				<stop  offset="0" style="stop-color:#2B3582"/>
				<stop  offset="1" style="stop-color:#150E42"/>
			</linearGradient>
			<path class="st6" d="M303.1,292.5c9.7-2.1,18.9-4.9,25-6.9c-6.7-2.5-22.1-7.7-33.9-8.2l-7.6,1.6c0,0-1.5,4.5,0,13.6
				C288.2,293.7,292.4,294.9,303.1,292.5z"/>
			
				<linearGradient id="SVGID_8_" gradientUnits="userSpaceOnUse" x1="15607.9561" y1="-371.6585" x2="15650.5742" y2="-371.6585" gradientTransform="matrix(0.9654 -0.261 0.261 0.9654 -14683.5674 4728.2866)">
				<stop  offset="0" style="stop-color:#53D8FF"/>
				<stop  offset="1" style="stop-color:#3840F7"/>
			</linearGradient>
			<path class="st7" d="M328.2,285.6C328.1,285.6,328.1,285.6,328.2,285.6c-6.2,2-15.4,4.7-25.1,6.9c-10.6,2.4-14.8,1.2-16.5,0
				c0.1,0.4,0.1,0.8,0.2,1.3c0.4,2,2.3,3.3,4.2,2.9c8-1.5,27.8-5.4,37.1-8.5C329.3,287.8,329.4,286.1,328.2,285.6z"/>
			
				<linearGradient id="SVGID_9_" gradientUnits="userSpaceOnUse" x1="15194.1201" y1="-1610.3552" x2="15206.4561" y2="-1610.3552" gradientTransform="matrix(1 -1.150000e-02 1.150000e-02 1 -14888.5254 2058.48)">
				<stop  offset="0" style="stop-color:#F9B776"/>
				<stop  offset="1" style="stop-color:#F47960"/>
			</linearGradient>
			<path class="st8" d="M287.5,268.6c1.1,0-1.4,5.6,0.2,11.1c0.4,1.2,1.3,2.2,2.6,2.2c0.8,0,1.8,0,2.8-0.1c1.5-0.1,2.7-1.3,2.8-2.8
				l3.3-14.2L287.5,268.6z"/>
		</g>
		<g>
			
				<linearGradient id="SVGID_10_" gradientUnits="userSpaceOnUse" x1="14955.5283" y1="291.7057" x2="14998.1484" y2="291.7057" gradientTransform="matrix(1 5.300000e-03 -5.300000e-03 1 -14783.9541 -26.9823)">
				<stop  offset="0" style="stop-color:#2B3582"/>
				<stop  offset="1" style="stop-color:#150E42"/>
			</linearGradient>
			<path class="st9" d="M186,352.6c9.9,0.5,19.5,0.3,25.9,0c-5.8-4.2-19.2-13.3-30.5-17l-5.3-0.3c-1.5-0.1-2.9,0.8-3.5,2.2
				c-0.8,2.1-1.9,5.6-2.5,10.7C171.4,349.8,175.1,352,186,352.6z"/>
			
				<linearGradient id="SVGID_11_" gradientUnits="userSpaceOnUse" x1="14955.5283" y1="299.3009" x2="14998.1484" y2="299.3009" gradientTransform="matrix(1 5.300000e-03 -5.300000e-03 1 -14783.9541 -26.9823)">
				<stop  offset="0" style="stop-color:#53D8FF"/>
				<stop  offset="1" style="stop-color:#3840F7"/>
			</linearGradient>
			<path class="st10" d="M212,352.6C212,352.6,212,352.6,212,352.6c-6.5,0.2-16.1,0.5-26,0c-10.9-0.6-14.6-2.8-15.9-4.4
				c0,0.4-0.1,0.8-0.1,1.3c-0.2,2,1.3,3.8,3.3,3.9c8.1,0.7,28.3,2.2,38,1.7C212.6,355,213.1,353.4,212,352.6z"/>
			
				<linearGradient id="SVGID_12_" gradientUnits="userSpaceOnUse" x1="14960.5146" y1="278.9001" x2="14974.083" y2="278.9001" gradientTransform="matrix(1 5.300000e-03 -5.300000e-03 1 -14783.9541 -26.9823)">
				<stop  offset="0" style="stop-color:#F9B776"/>
				<stop  offset="1" style="stop-color:#F47960"/>
			</linearGradient>
			<path class="st11" d="M176.9,324.8c1.1,0-1.8,6.4-1.9,12.1c0,1.3,1.3,2.2,2.6,2.2c0.8,0,1.8,0,2.8-0.1c1.5-0.1,2.7-1.3,2.9-2.8
				l5.4-12.9L176.9,324.8z"/>
		</g>
		
			<linearGradient id="SVGID_13_" gradientUnits="userSpaceOnUse" x1="-6336.1914" y1="181.5332" x2="-6484.8877" y2="334.9396" gradientTransform="matrix(-1 0 0 1 -6164.9072 0)">
			<stop  offset="0" style="stop-color:#CB236D"/>
			<stop  offset="1" style="stop-color:#4C246D"/>
		</linearGradient>
		<path class="st12" d="M174.4,328.9c4.1-16.6,31.7-133.4,51.1-158.8l27.5,5.6l3.2-3.9c0,0,65,19,72.5,26.2
			c6.1,5.9-28.9,76.9-28.9,76.9s-7.3,2.8-14.1-3.1l11-49.6c0.5-2-0.8-4-2.9-4.5l-49.3-10.5c-1.9-0.4-3.9,0.6-4.7,2.3
			c-10.4,22.2-46.3,99.2-52.5,123c-0.2,0.7-0.8,1.1-1.5,1.1c-2.1-0.1-6.3-0.5-9.8-1.7C174.8,331.4,174.1,330.1,174.4,328.9z"/>
		
			<linearGradient id="SVGID_14_" gradientUnits="userSpaceOnUse" x1="15060.0254" y1="169.9086" x2="15015.8535" y2="227.0166" gradientTransform="matrix(1 0 0 1 -14789.8076 0)">
			<stop  offset="0" style="stop-color:#CB236D"/>
			<stop  offset="1" style="stop-color:#4C246D"/>
		</linearGradient>
		<path class="st13" d="M242.6,205.4c-0.2,0-0.3-0.1-0.4-0.2c-0.2-0.2-0.3-0.6,0-0.9l6.4-6.6c0.2-0.2,0.6-0.3,0.9,0
			c0.2,0.2,0.3,0.6,0,0.9l-6.4,6.6C242.9,205.3,242.7,205.4,242.6,205.4z"/>
		<linearGradient id="SVGID_15_" gradientUnits="userSpaceOnUse" x1="315.8111" y1="35.0489" x2="174.654" y2="225.5793">
			<stop  offset="0" style="stop-color:#FDF53F"/>
			<stop  offset="1" style="stop-color:#D93C65"/>
		</linearGradient>
		<path class="st14" d="M301.6,66.9c-13.5-3.5-40.2-9.4-58.3-6.1l-19.7,112c9.8,6.9,23.4,8.1,39.9,5.1l42.2-66.6
			c2.7-5.6,4-11.7,3.9-17.9C309.4,83.1,308.1,68.6,301.6,66.9z"/>
		
			<linearGradient id="SVGID_16_" gradientUnits="userSpaceOnUse" x1="15064.2959" y1="75.4626" x2="15069.2383" y2="44.9833" gradientTransform="matrix(1 0 0 1 -14789.8076 0)">
			<stop  offset="0" style="stop-color:#F9B776"/>
			<stop  offset="1" style="stop-color:#F47960"/>
		</linearGradient>
		<path class="st15" d="M273,34.3c0,0-4.3,18.1-7.2,26.2c-0.4,1.1,0.5,2.2,1.6,2.5c4.1,1,13.7,3.2,18.4,2.3c1-0.2,1.7-1,1.8-1.9
			l2.7-24.6L273,34.3z"/>
		<g>
			
				<linearGradient id="SVGID_17_" gradientUnits="userSpaceOnUse" x1="15083.542" y1="26.2027" x2="15050.4814" y2="51.4988" gradientTransform="matrix(1 0 0 1 -14789.8076 0)">
				<stop  offset="0" style="stop-color:#F9B776"/>
				<stop  offset="1" style="stop-color:#F47960"/>
			</linearGradient>
			<path class="st16" d="M292.5,14.5c0,0,5.8,13.3,6.2,20.3c0.4,7,1.9,11.5-6.2,12.9c-8.1,1.4-14.9-2.6-18.5-9.6
				c0,0-5.8-10.7-4.5-15.1C270.8,18.6,292.5,14.5,292.5,14.5z"/>
			
				<linearGradient id="SVGID_18_" gradientUnits="userSpaceOnUse" x1="15060.3154" y1="6.2341" x2="15090.252" y2="44.7772" gradientTransform="matrix(1 0 0 1 -14789.8076 0)">
				<stop  offset="0" style="stop-color:#2B3582"/>
				<stop  offset="1" style="stop-color:#150E42"/>
			</linearGradient>
			<path class="st17" d="M276.7,33.1h1c0,0-4.2-8.6-0.5-10.1c3.7-1.5,18.3-4.5,21.5-9.7c3-5,0.3-11.5-3.7-13.3
				c-0.3-0.1-0.6,0-0.7,0.3L294,0.9c-0.2,0.4-0.9,0.4-1-0.1l0,0c-0.1-0.4-0.7-0.5-1-0.2c-1,1.6-3.6,4.1-10.6,5.4
				c-9.9,1.8-16.5,5.9-16.7,12.7c0,0.4-0.5,0.7-0.8,0.4c-0.7-0.4-1.9-0.7-3.5,0.7c-2.7,2.3-1.6,8.3,4.4,13.2c0.3,0.2,0.3,0.7,0,0.9
				c-1.1,0.7-2.7,2.4,1.5,4.6c4.3,2.3,6.8,2,7.8,1.8c0.3-0.1,0.4-0.3,0.4-0.6l-0.4-6.1c0-0.3,0.2-0.6,0.5-0.6H276.7z"/>
			
				<linearGradient id="SVGID_19_" gradientUnits="userSpaceOnUse" x1="15079.4414" y1="20.8433" x2="15046.3809" y2="46.1395" gradientTransform="matrix(1 0 0 1 -14789.8076 0)">
				<stop  offset="0" style="stop-color:#F9B776"/>
				<stop  offset="1" style="stop-color:#F47960"/>
			</linearGradient>
			<path class="st18" d="M277,34.4c0,0-2.2-8.5-6-6.1c-3.8,2.4,2,9.5,5,9.8L277,34.4z"/>
		</g>
		<linearGradient id="SVGID_20_" gradientUnits="userSpaceOnUse" x1="260.7708" y1="131.6304" x2="179.1152" y2="222.781">
			<stop  offset="0" style="stop-color:#F9B776"/>
			<stop  offset="1" style="stop-color:#F47960"/>
		</linearGradient>
		<path class="st19" d="M226.5,156.2c0,0,10-3.8,13-2.4c3,1.4,8.2,6.8,8.2,6.8s-6,4.4-9.2,2.8c-3.2-1.6-10.6,1.9-13,3.2
			C223.2,167.9,217.9,162.1,226.5,156.2z"/>
		<linearGradient id="SVGID_21_" gradientUnits="userSpaceOnUse" x1="286.1534" y1="13.0763" x2="144.9961" y2="203.607">
			<stop  offset="0" style="stop-color:#FDF53F"/>
			<stop  offset="1" style="stop-color:#D93C65"/>
		</linearGradient>
		<path class="st20" d="M209,131.2c-0.2-3.3,0.5-6.7,2.7-10.1c11.7-18.2,37.9-22.8,37.9-22.8l-6.4-37.5c0,0-44.6,19.8-54.6,54
			c-3.2,11.1-0.7,20.3,4.2,27.7C198.2,135,204.2,132.1,209,131.2z"/>
		<linearGradient id="SVGID_22_" gradientUnits="userSpaceOnUse" x1="242.5862" y1="115.3397" x2="160.9303" y2="206.4906">
			<stop  offset="0" style="stop-color:#F9B776"/>
			<stop  offset="1" style="stop-color:#F47960"/>
		</linearGradient>
		<path class="st21" d="M209,131.2c-4.9,0.9-10.8,3.8-16.1,11.2c10.2,15.4,30.7,23,30.7,23l5.8-8.2
			C229.4,157.1,210.1,145.3,209,131.2z"/>
		<g>
			
				<linearGradient id="SVGID_23_" gradientUnits="userSpaceOnUse" x1="-6492.8174" y1="1182.3186" x2="-6667.9629" y2="1363.8019" gradientTransform="matrix(-0.9776 -0.2106 -0.2106 0.9776 -4442.6987 -489.153)">
				<stop  offset="0" style="stop-color:#F9B776"/>
				<stop  offset="1" style="stop-color:#F47960"/>
			</linearGradient>
			<path class="st22" d="M396.9,34.9c0.1,1.1-4,1.9-5.3-2.9c0.4-2.1,1-11,2.6-12.4c8.4-7.4,23.3-15.8,23.3-15.8
				C419.2,6.3,417,8,417,8l-7.5,5c0.8,2.6,1.9,4.9,2,7.8c0.1,2.2-0.7,4.4-2.2,6.1c-1.5,1.7-3.5,3.9-5.3,5.6
				C400.7,35.6,396.9,34.9,396.9,34.9z"/>
			<linearGradient id="SVGID_24_" gradientUnits="userSpaceOnUse" x1="396.0668" y1="23.474" x2="407.5602" y2="23.474">
				<stop  offset="0" style="stop-color:#F9B776"/>
				<stop  offset="1" style="stop-color:#F47960"/>
			</linearGradient>
			<path class="st23" d="M401,31.2l-1.3-0.5c0.4-0.9,3.8-9.1,5.5-10.9c0.6-0.7,1-1.3,0.9-1.7c0-0.2-0.1-0.5-0.3-0.7l-6,3.2l-2.7,4.2
				l-1.2-0.7l2.9-4.5l7.1-3.8l0.4,0.3c0.7,0.6,1.1,1.2,1.2,2c0.1,0.9-0.4,1.8-1.3,2.7C405,22.1,402.1,28.8,401,31.2z"/>
		</g>
	</g>
</g>
<text transform="matrix(1 0 0 1 297.5466 278.0446)" class="st24 st25">b5ffce</text>
</svg>
