<svg enable-background="new 0 0 204.2 164.2" viewBox="0 0 204.2 164.2" xmlns="http://www.w3.org/2000/svg" xmlns:xlink="http://www.w3.org/1999/xlink"><clipPath id="a"><ellipse cx="66.5" cy="97.7" rx="66.5" ry="66.5" transform="matrix(.7071 -.7071 .7071 .7071 -49.5916 75.6556)"/></clipPath><linearGradient id="b"><stop offset="0" stop-color="#7c27dd"/><stop offset="1" stop-color="#2b41d9"/></linearGradient><linearGradient id="c" gradientUnits="userSpaceOnUse" x1="80.5012" x2="49.8129" xlink:href="#b" y1="140.7995" y2="-6.654"/><linearGradient id="d"><stop offset="0" stop-color="#f9b776"/><stop offset="1" stop-color="#f47960"/></linearGradient><linearGradient id="e" gradientUnits="userSpaceOnUse" x1="78.0815" x2="107.9108" xlink:href="#d" y1="51.7335" y2="51.7335"/><linearGradient id="f" gradientUnits="userSpaceOnUse" x1="44.0495" x2="13.361" xlink:href="#b" y1="148.3859" y2=".9318"/><linearGradient id="g" gradientUnits="userSpaceOnUse" x1="14.6206" x2="36.9057" xlink:href="#d" y1="152.974" y2="152.974"/><linearGradient id="h" gradientUnits="userSpaceOnUse" x1="139.7556" x2="109.0671" xlink:href="#b" y1="128.4674" y2="-18.9867"/><linearGradient id="i" gradientUnits="userSpaceOnUse" x1="171.508" x2="201.8971" xlink:href="#d" y1="134.9962" y2="134.9962"/><linearGradient id="j" gradientUnits="userSpaceOnUse" x1="116.1398" x2="90.6897" xlink:href="#d" y1="41.7227" y2="12.4468"/><linearGradient id="k" gradientUnits="userSpaceOnUse" x1="83.6623" x2="128.8163" y1="18.6476" y2="18.6476"><stop offset="0" stop-color="#cb236d"/><stop offset="1" stop-color="#4c246d"/></linearGradient><linearGradient id="l" gradientUnits="userSpaceOnUse" x1="108.4326" x2="82.9826" xlink:href="#d" y1="48.4226" y2="19.1467"/><path clip-path="url(#a)" d="m33.9 163.7s-15.5-61.6 18.9-113.4c0 0 30.8-1.3 66.4 29.7 0 0-31.4 27.7-35.2 87 0 0-38.1 5.3-50.1-3.3z" fill="url(#c)"/><path d="m95.5 35.7-16.3 19.3c-1.5 1.8-1.5 4.5.1 6.3 2.7 3.1 7.5 7.1 13.9 6.3 2.1-.3 3.9-1.5 4.9-3.3l9.9-17.8z" fill="url(#e)"/><path d="m20.7 147.5s-4.6-54.3 32-70.9l.1-26.3s-60.4 24.9-38.1 94.2z" fill="url(#f)"/><path d="m14.7 144.5s-1.2 8.3 6.7 9.3c8.3 1 7.1 11.3 14.6 9.1.6-.2.9-.7.9-1.3-.3-3.6-2.4-16.2-17-18.7z" fill="url(#g)"/><path d="m119.2 80s17.2 44.6 53.6 51.2l1.5 5.7s-51.4 5.3-73.5-38.6z" fill="url(#h)"/><path d="m171.8 134.3c-.9-2.4.9-5.1 3.5-4.9h.4c4.3.6 8.7.3 10.4-.7.6-.3 1.3-.1 1.6.4.4.8-.1 2-4.3 3.4 0 0 8.7 4.3 16.3 1.5 7.4-2.7-4.5 14.2-25.3 3.7-1-.5-1.9-1.4-2.3-2.5z" fill="url(#i)"/><path d="m119.2 20.4s3.3 28.7-9 32.3c-12.2 3.7-17.6-24.1-17.6-24.1s7.7-27.1 26.6-8.2z" fill="url(#j)"/><path d="m95.5 35.7c-.4.5-6.9 4.3-10.4-2.2-3.6-6.5 0-10.6 5.7-10.9 0 0-3.5-2.3-.9-5.2s5.3-.5 5.3-.5 2-21.6 19.9-15.9 13.8 15.9 12.2 19c-1.6 3-10.7 6.8-20.4 1.1 0 0 2.3 3.1-.7 6.1s-10.7 3.8-10.7 3.8z" fill="url(#k)"/><path d="m99.5 36.4s-1.1-8.9-5.8-6.3c-6.1 3.3 3.2 8.9 3.2 8.9z" fill="url(#l)"/><path d="m200.1 91.8h-2v-4.1c0-5.6-4.5-10.1-10.1-10.1s-10.1 4.5-10.1 10.1v4.1h-2c-2.2 0-4.1 1.8-4.1 4.1v20.3c0 2.2 1.8 4.1 4.1 4.1h24.3c2.2 0 4.1-1.8 4.1-4.1v-20.3c-.1-2.3-1.9-4.1-4.2-4.1zm-12.1 18.3c-2.2 0-4.1-1.8-4.1-4.1 0-2.2 1.8-4.1 4.1-4.1 2.2 0 4.1 1.8 4.1 4.1-.1 2.2-1.9 4.1-4.1 4.1zm6.3-18.3h-12.6v-4.1c0-3.5 2.8-6.3 6.3-6.3s6.3 2.8 6.3 6.3z" fill="#3cdd56"/><path clip-rule="evenodd" d="m199.4 59.3c-1.7 0-3 1.3-3 3s1.3 3 3 3 3-1.3 3-3-1.3-3-3-3zm-17-20c-1.1 0-2 .9-2 2s.9 2 2 2 2-.9 2-2-.9-2-2-2zm-13.5 31c-1.9 0-3.5 1.6-3.5 3.5s1.6 3.5 3.5 3.5 3.5-1.6 3.5-3.5-1.5-3.5-3.5-3.5z" fill="#9deeaa" fill-rule="evenodd"/></svg>