<svg enable-background="new 0 0 137.8 172" viewBox="0 0 137.8 172" xmlns="http://www.w3.org/2000/svg"><path d="m62.6 172c-4.5 0-8.6-2.2-11.2-5.9-2.5-3.6-3.1-8-1.5-12 1.8-4.8 2.2-9.9 1.4-15.7-12.1 1.6-20.7.7-26.2-2.7-6.3-3.9-9.2-13.2-9.3-29.8-5.9-.6-11.9-1.7-14.7-6.6-2-3.5-1.1-8.4 3.1-16.3 2.6-4.9 6.3-10.7 10.2-16-1.6-15-.3-26.9 3.9-35.3 10.8-21.8 36.6-33.8 67.3-31.4 17.5 1.4 30.9 7.5 39.8 18.1 12.1 14.3 13.2 33.2 12 46.5-1.1 12.6-6 24.4-9.9 32.2-4.2 8.4-8.6 18.3-8.7 28.4-.1 7.7 1.2 12.4 2.8 18.3 1 3.6 2.1 7.6 2.9 12.7.6 3.9-.5 7.8-3 10.8-2.6 3-6.3 4.8-10.3 4.8zm-7.2-45.1c2.4 0 4.6 1.6 5.2 4 2.6 9.8 2.3 18.8-.7 26.9-.3.9 0 1.7.3 2.1.5.8 1.4 1.2 2.3 1.2h48.8c1.1 0 1.8-.6 2.1-1 .3-.3.8-1.1.6-2.1-.8-4.6-1.7-8.2-2.7-11.6-1.7-6.2-3.2-12-3.2-21.2.1-12.3 5-23.7 9.8-33.2 3.5-6.9 7.8-17.3 8.8-28.2 1-11.3.2-27.2-9.5-38.6-7-8.3-18-13.1-32.5-14.3-26.3-2.1-48.1 7.6-56.9 25.4-3.3 6.6-4.2 17-2.8 30.1.3 2.2-.3 4.4-1.7 6.2-7.2 9.6-11.6 18.1-12.5 21.4 1.9.7 6 1.1 8.4 1.3.8.1 1.6.1 2.3.2 2.8.3 4.9 2.7 4.9 5.5-.5 21.4 3.4 24.9 4.2 25.4 2.2 1.4 8.2 3.2 23.8.4.4.2.7.1 1 .1z" fill="#999"/><path d="m93.2 60.8h-1.4v-6.5c0-11.1-9-20.1-20.1-20.1s-20.1 9-20.1 20.1v6.5h-1.4c-4.4 0-8 3.6-8 8v34c0 4.4 3.6 8 8 8h43.1c4.4 0 8-3.6 8-8v-34c0-4.4-3.6-8-8.1-8zm-32.4-6.5c0-6 4.9-10.9 10.9-10.9s10.9 4.9 10.9 10.9v6.5h-21.8zm16.9 44.6h-12.1c-1.5 0-2.6-1.5-2.1-3l3.5-9.9c-1.7-1.4-2.8-3.4-2.8-5.8 0-4.1 3.3-7.5 7.5-7.5 4.1 0 7.5 3.3 7.5 7.5 0 2.4-1.1 4.4-2.8 5.8l3.5 9.9c.5 1.4-.6 3-2.2 3z" fill="#3cdd56"/></svg>