<svg enable-background="new 0 0 234.4 185.9" viewBox="0 0 234.4 185.9" xmlns="http://www.w3.org/2000/svg" xmlns:xlink="http://www.w3.org/1999/xlink"><clipPath id="a"><path d="m72 184.2c29.1 6.2 57.9-5.3 75.2-27.1 7-8.9 84.2-38.8 86.7-50.6 8.7-41-86.8-96.9-127.8-105.6-41-8.7-96.8 45.8-105.5 86.8-3.9 18.3 12.1 43 20.3 58.3 10.2 18.9 28.4 33.4 51.1 38.2z"/></clipPath><linearGradient id="b"><stop offset="0" stop-color="#a737d5"/><stop offset="1" stop-color="#ef497a"/></linearGradient><linearGradient id="c" gradientTransform="matrix(-1 0 0 1 234.4252 0)" gradientUnits="userSpaceOnUse" x1="219.3311" x2="164.9353" xlink:href="#b" y1="-3.2933" y2="61.3418"/><linearGradient id="d"><stop offset="0" stop-color="#f9b776"/><stop offset="1" stop-color="#f47960"/></linearGradient><linearGradient id="e" gradientTransform="matrix(-1 0 0 1 234.4252 0)" gradientUnits="userSpaceOnUse" x1="53.8705" x2="91.0974" xlink:href="#d" y1="160.7096" y2="141.4314"/><linearGradient id="f" gradientTransform="matrix(-1 0 0 1 234.4252 0)" gradientUnits="userSpaceOnUse" x1="152.9265" x2="175.5285" y1="116.1712" y2="264.4142"><stop offset="0" stop-color="#fdf53f"/><stop offset=".6645" stop-color="#e57a58"/><stop offset="1" stop-color="#d93c65"/></linearGradient><linearGradient id="g" gradientTransform="matrix(-1 0 0 1 234.4252 0)" gradientUnits="userSpaceOnUse" x1="140.5622" x2="144.994" xlink:href="#d" y1="110.6622" y2="79.1966"/><linearGradient id="h" gradientTransform="matrix(-1 0 0 1 234.4252 0)" gradientUnits="userSpaceOnUse" x1="120.2459" x2="161.6831" xlink:href="#d" y1="43.2403" y2="90.8819"/><linearGradient id="i" gradientTransform="matrix(-1 0 0 1 234.4252 0)" gradientUnits="userSpaceOnUse" x1="193.2787" x2="138.8828" xlink:href="#b" y1="-25.2187" y2="39.4165"/><linearGradient id="j" gradientTransform="matrix(-1 0 0 1 234.4252 0)" gradientUnits="userSpaceOnUse" x1="130.5988" x2="172.0361" xlink:href="#d" y1="34.2355" y2="81.8773"/><linearGradient id="k"><stop offset="0" stop-color="#cb236d"/><stop offset="1" stop-color="#4c246d"/></linearGradient><linearGradient id="l" gradientTransform="matrix(-1 0 0 1 234.4252 0)" gradientUnits="userSpaceOnUse" x1="46.452" x2="77.9175" xlink:href="#k" y1="135.8868" y2="95.3362"/><linearGradient id="m" gradientTransform="matrix(-1 0 0 1 234.4252 0)" gradientUnits="userSpaceOnUse" x1="53.3338" x2="68.845" xlink:href="#k" y1="124.8936" y2="104.5075"/><linearGradient id="n" gradientTransform="matrix(-1 0 0 1 234.4252 0)" gradientUnits="userSpaceOnUse" x1="67.21" x2="61.8919" xlink:href="#k" y1="96.262" y2="174.0395"/><linearGradient id="o" gradientTransform="matrix(-1 0 0 1 234.4252 0)" gradientUnits="userSpaceOnUse" x1="110.2936" x2="220.6452" xlink:href="#d" y1="163.7549" y2="16.8412"/><g clip-path="url(#a)"><path d="m114.3 43.2s11.9-21.6-16.4-23.2c0 0-12.2-5.8-16.4 6.1 0 0-9.9 3-6.9 15.3 0 0-21.8-16.7-38.8 1.8-17 18.4-10.6 33.2-1.2 39.3 0 0-9.6 1.8-8.4 12.4s19.3 23.2 34.5 15.1c0 0 32.4 14.3 38.7-9.7 0 0 18.6-5.6 7.9-30-10.7-24.6 7-27.1 7-27.1z" fill="url(#c)"/><path d="m151.1 124.4s-7.9 26-29.9 25.6-24.5-43.5-24.5-43.5l-12.1 41.3s8.4 23.4 39.2 19.1 37.4-37.4 37.4-37.4 16.2 3.5 18.1-13.4c.1-1.2-1.2-1.9-2.1-1.1-3.3 2.8-9.6 7.3-15.9 6.1-9.2-1.6-10.2 3.3-10.2 3.3z" fill="url(#e)"/><path d="m100.2 97.1c-4.9-3.1-19.5-10.5-38.2-1.2-3.2 1.6-5.2 4.8-5.3 8.3-.3 15.7-2.4 61.8-16.9 77.7 0 0 11 22.5 32.7 13.3 0 0 17.9-32.1 32.6-44.2 10.2-8.3 0-42.5-2.7-50.8-.3-1.3-1.1-2.3-2.2-3.1z" fill="url(#f)"/><path d="m93.9 63.9s-14.3 20-17.8 29.6c0 0 7.5 6.5 17.7 2.2 0 0 7.3-22 9.7-25.6z" fill="url(#g)"/><path d="m113.6 36.8s12.2 34.8-2.5 39.5c-14.7 4.8-23.4-19.9-23.4-19.9s-.2-17.1 6.4-21c6.5-3.9 19.5 1.4 19.5 1.4z" fill="url(#h)"/><path d="m106.1 27.2s8.8 5 8.9 9.6c.1 4.7-15.8 4.3-20 3.3l-8.3 16.3s-5.1-19.1 1.5-27.3 17.9-1.9 17.9-1.9z" fill="url(#i)"/><path d="m92.3 55.5s-5.3-11.6-10.2-6.5 4.1 12.7 8.6 10.8z" fill="url(#j)"/><path d="m212.7 106.5-69.5 26.3c-.5.2-1.2.1-1.6-.2l-15.3-11.4c-1-.7-.9-2.3.2-2.9 9.4-5.1 44.9-23.6 68-27 .4-.1.9 0 1.2.3l17.4 11.9c1.1.8.9 2.5-.4 3z" fill="url(#l)"/><path d="m212.1 101.9-68.9 28.6c-.5.2-1.2.2-1.6-.2l-16-11.3c-1.1-.8-.9-2.4.3-3 11.4-5.2 55.6-25 67.5-28.3.5-.1 1-.1 1.4.2l17.6 11c1.1.7 1 2.5-.3 3z" fill="url(#m)"/><path d="m209.8 95-67.1 33.5c-.6.3-1.2.2-1.8-.1l-15.4-11c-1.1-.8-.9-2.4.3-2.9l67.5-30.6c.5-.2 1.1-.2 1.5.1l15.1 8.1c1.2.5 1.2 2.3-.1 2.9z" fill="url(#n)"/><path d="m165.4 124.4s-5.5 2.4-7.2 1.4c-4.5-2.8-13.2-7-18.5-5.6-7.3 2-17.8 14.8-28.9 23.9-11.1 9-36.6 12.8-46.2.9s9.2-36.5-2.2-43.8c-11.4-7.2-22 30.3-21 39.3s11.1 34.9 44.7 30.8c33.5-4 52.9-38.7 52.9-38.7s9.6 1.2 15 .8c5.2-.3 11.4-9 11.4-9z" fill="url(#o)"/></g><path d="m181.5 53.4c0-4.6-4-5.9-7.7-6.7v-5.6c1.7.2 3.4.8 5 1.7l1.7-4.1c-1.8-1.2-4.2-1.8-6.7-2v-3.6h-3.3v3.7c-5.2.6-7.8 3.6-7.8 7.1 0 4.7 4.1 5.9 7.8 6.8v5.5c-2.4-.2-4.8-1.1-6.4-2.3l-1.8 4c1.8 1.4 5 2.4 8.2 2.6v3.6h3.3v-3.7c5.2-.6 7.7-3.5 7.7-7zm-13.4-9.8c0-1.1.7-2 2.4-2.4v4.7c-1.4-.5-2.4-1.1-2.4-2.3zm5.7 12.5v-4.5c1.4.5 2.4 1.1 2.4 2.3 0 1-.7 1.8-2.4 2.2z" fill="#666"/><path d="m171.9 22.1c-14.6 0-26.5 11.9-26.5 26.5s11.9 26.5 26.5 26.5 26.5-11.9 26.5-26.5-11.8-26.5-26.5-26.5zm-21.2 26.5c0-11.7 9.5-21.2 21.2-21.2 4.9 0 9.4 1.7 13 4.5l-29.7 29.7c-2.8-3.5-4.5-8-4.5-13zm21.2 21.3c-4.9 0-9.4-1.7-13-4.5l29.7-29.7c2.8 3.6 4.5 8.1 4.5 13 0 11.7-9.5 21.2-21.2 21.2z" fill="#5cd1ff"/></svg>