<svg version="1.1" id="Layer_1" xmlns="http://www.w3.org/2000/svg" x="0" y="0" viewBox="0 0 487.6 458.8" xml:space="preserve">
  <linearGradient id="SVGID_1_" gradientUnits="userSpaceOnUse" x1="12394.831" y1="-3494.074" x2="11991.012" y2="-3738.813" gradientTransform="matrix(-0.9974 7.220000e-02 0.244 0.8954 13090.6045 2776.4744)">
    <stop offset="0" stop-color="#53d8ff"/>
    <stop offset="1" stop-color="#3840f7"/>
  </linearGradient>
  <path fill="url(#SVGID_1_)" d="M100.5 327.8l21.2 88.8 51-52.6z"/>
  <linearGradient id="SVGID_2_" gradientUnits="userSpaceOnUse" x1="214.008" y1="492.518" x2="304.329" y2="-353.205">
    <stop offset="0" stop-color="#53d8ff"/>
    <stop offset="1" stop-color="#3840f7"/>
  </linearGradient>
  <path d="M487.6 181.4L298.1 449c-3.6 5.1-9.2 8.6-15.4 9.5-6.2.9-12.5-.7-17.5-4.5L3.6 253.6c-3-2.3-4.3-6.2-3.3-9.8 1-3.6 4.1-6.3 7.9-6.7l479.4-55.7z" fill="url(#SVGID_2_)"/>
  <linearGradient id="SVGID_3_" gradientUnits="userSpaceOnUse" x1="12365.345" y1="-3498.139" x2="11988.116" y2="-3726.762" gradientTransform="matrix(-0.9974 7.220000e-02 0.244 0.8954 13090.6045 2776.4744)">
    <stop offset="0" stop-color="#53d8ff"/>
    <stop offset="1" stop-color="#3840f7"/>
  </linearGradient>
  <path fill="url(#SVGID_3_)" d="M100.5 327.8l387.1-146.4-344.9 178.9 4.8 24.9z"/>
  <linearGradient id="SVGID_4_" gradientUnits="userSpaceOnUse" x1="-15880.008" y1="-3223.979" x2="-15707.626" y2="-3273.907" gradientTransform="matrix(0.9974 -7.220000e-02 7.220000e-02 0.9974 16130.7422 2484.4749)">
    <stop offset="0" stop-color="#53d8ff"/>
    <stop offset="1" stop-color="#3840f7"/>
  </linearGradient>
  <path fill="url(#SVGID_4_)" d="M167.8 379.3l-46.1 37.3 21-56.3z"/>
  <g>
    <linearGradient id="SVGID_5_" gradientUnits="userSpaceOnUse" x1="398.141" y1="15.913" x2="222.996" y2="197.395">
      <stop offset="0" stop-color="#f9b776"/>
      <stop offset="1" stop-color="#f47960"/>
    </linearGradient>
    <path d="M397.4 32l-3.2-9.3c-17.9 14.3-34.6 24.1-49 30.7.8 6.5 3 14.5 8.5 21.1C381.1 54.9 397.4 32 397.4 32z" fill="url(#SVGID_5_)"/>
    <linearGradient id="SVGID_6_" gradientUnits="userSpaceOnUse" x1="370.754" y1="3.399" x2="273.388" y2="141.671">
      <stop offset="0" stop-color="#fdf53f"/>
      <stop offset="1" stop-color="#d93c65"/>
    </linearGradient>
    <path d="M292.7 67.4l8.2 31.6c20.2-4.5 38.1-14 52.7-24.4-5.4-6.5-7.6-14.5-8.5-21.1-31.5 14.4-52.4 13.9-52.4 13.9z" fill="url(#SVGID_6_)"/>
    <linearGradient id="SVGID_7_" gradientUnits="userSpaceOnUse" x1="15607.956" y1="-379.321" x2="15650.574" y2="-379.321" gradientTransform="matrix(0.9654 -0.261 0.261 0.9654 -14683.5674 4728.2866)">
      <stop offset="0" stop-color="#2b3582"/>
      <stop offset="1" stop-color="#150e42"/>
    </linearGradient>
    <path d="M303.1 292.5c9.7-2.1 18.9-4.9 25-6.9-6.7-2.5-22.1-7.7-33.9-8.2l-7.6 1.6s-1.5 4.5 0 13.6c1.6 1.1 5.8 2.3 16.5-.1z" fill="url(#SVGID_7_)"/>
    <linearGradient id="SVGID_8_" gradientUnits="userSpaceOnUse" x1="15607.956" y1="-371.659" x2="15650.574" y2="-371.659" gradientTransform="matrix(0.9654 -0.261 0.261 0.9654 -14683.5674 4728.2866)">
      <stop offset="0" stop-color="#53d8ff"/>
      <stop offset="1" stop-color="#3840f7"/>
    </linearGradient>
    <path d="M328.2 285.6c-.1 0-.1 0 0 0-6.2 2-15.4 4.7-25.1 6.9-10.6 2.4-14.8 1.2-16.5 0 .1.4.1.8.2 1.3.4 2 2.3 3.3 4.2 2.9 8-1.5 27.8-5.4 37.1-8.5 1.2-.4 1.3-2.1.1-2.6z" fill="url(#SVGID_8_)"/>
    <linearGradient id="SVGID_9_" gradientUnits="userSpaceOnUse" x1="15194.12" y1="-1610.355" x2="15206.456" y2="-1610.355" gradientTransform="matrix(1 -1.150000e-02 1.150000e-02 1 -14888.5254 2058.48)">
      <stop offset="0" stop-color="#f9b776"/>
      <stop offset="1" stop-color="#f47960"/>
    </linearGradient>
    <path d="M287.5 268.6c1.1 0-1.4 5.6.2 11.1.4 1.2 1.3 2.2 2.6 2.2.8 0 1.8 0 2.8-.1 1.5-.1 2.7-1.3 2.8-2.8l3.3-14.2-11.7 3.8z" fill="url(#SVGID_9_)"/>
    <linearGradient id="SVGID_10_" gradientUnits="userSpaceOnUse" x1="14955.528" y1="291.706" x2="14998.148" y2="291.706" gradientTransform="matrix(1 5.300000e-03 -5.300000e-03 1 -14783.9541 -26.9823)">
      <stop offset="0" stop-color="#2b3582"/>
      <stop offset="1" stop-color="#150e42"/>
    </linearGradient>
    <path d="M186 352.6c9.9.5 19.5.3 25.9 0-5.8-4.2-19.2-13.3-30.5-17l-5.3-.3c-1.5-.1-2.9.8-3.5 2.2-.8 2.1-1.9 5.6-2.5 10.7 1.3 1.6 5 3.8 15.9 4.4z" fill="url(#SVGID_10_)"/>
    <linearGradient id="SVGID_11_" gradientUnits="userSpaceOnUse" x1="14955.528" y1="299.301" x2="14998.148" y2="299.301" gradientTransform="matrix(1 5.300000e-03 -5.300000e-03 1 -14783.9541 -26.9823)">
      <stop offset="0" stop-color="#53d8ff"/>
      <stop offset="1" stop-color="#3840f7"/>
    </linearGradient>
    <path d="M212 352.6c-6.5.2-16.1.5-26 0-10.9-.6-14.6-2.8-15.9-4.4 0 .4-.1.8-.1 1.3-.2 2 1.3 3.8 3.3 3.9 8.1.7 28.3 2.2 38 1.7 1.3-.1 1.8-1.7.7-2.5z" fill="url(#SVGID_11_)"/>
    <linearGradient id="SVGID_12_" gradientUnits="userSpaceOnUse" x1="14960.515" y1="278.9" x2="14974.083" y2="278.9" gradientTransform="matrix(1 5.300000e-03 -5.300000e-03 1 -14783.9541 -26.9823)">
      <stop offset="0" stop-color="#f9b776"/>
      <stop offset="1" stop-color="#f47960"/>
    </linearGradient>
    <path d="M176.9 324.8c1.1 0-1.8 6.4-1.9 12.1 0 1.3 1.3 2.2 2.6 2.2.8 0 1.8 0 2.8-.1 1.5-.1 2.7-1.3 2.9-2.8l5.4-12.9-11.8 1.5z" fill="url(#SVGID_12_)"/>
    <linearGradient id="SVGID_13_" gradientUnits="userSpaceOnUse" x1="-6336.191" y1="181.533" x2="-6484.888" y2="334.94" gradientTransform="matrix(-1 0 0 1 -6164.9072 0)">
      <stop offset="0" stop-color="#cb236d"/>
      <stop offset="1" stop-color="#4c246d"/>
    </linearGradient>
    <path d="M174.4 328.9c4.1-16.6 31.7-133.4 51.1-158.8l27.5 5.6 3.2-3.9s65 19 72.5 26.2c6.1 5.9-28.9 76.9-28.9 76.9s-7.3 2.8-14.1-3.1l11-49.6c.5-2-.8-4-2.9-4.5l-49.3-10.5c-1.9-.4-3.9.6-4.7 2.3-10.4 22.2-46.3 99.2-52.5 123-.2.7-.8 1.1-1.5 1.1-2.1-.1-6.3-.5-9.8-1.7-1.2-.5-1.9-1.8-1.6-3z" fill="url(#SVGID_13_)"/>
    <linearGradient id="SVGID_14_" gradientUnits="userSpaceOnUse" x1="15060.025" y1="169.909" x2="15015.853" y2="227.017" gradientTransform="matrix(1 0 0 1 -14789.8076 0)">
      <stop offset="0" stop-color="#cb236d"/>
      <stop offset="1" stop-color="#4c246d"/>
    </linearGradient>
    <path d="M242.6 205.4c-.2 0-.3-.1-.4-.2-.2-.2-.3-.6 0-.9l6.4-6.6c.2-.2.6-.3.9 0 .2.2.3.6 0 .9l-6.4 6.6c-.2.1-.4.2-.5.2z" fill="url(#SVGID_14_)"/>
    <linearGradient id="SVGID_15_" gradientUnits="userSpaceOnUse" x1="315.811" y1="35.049" x2="174.654" y2="225.579">
      <stop offset="0" stop-color="#fdf53f"/>
      <stop offset="1" stop-color="#d93c65"/>
    </linearGradient>
    <path d="M301.6 66.9c-13.5-3.5-40.2-9.4-58.3-6.1l-19.7 112c9.8 6.9 23.4 8.1 39.9 5.1l42.2-66.6c2.7-5.6 4-11.7 3.9-17.9-.2-10.3-1.5-24.8-8-26.5z" fill="url(#SVGID_15_)"/>
    <linearGradient id="SVGID_16_" gradientUnits="userSpaceOnUse" x1="15064.296" y1="75.463" x2="15069.238" y2="44.983" gradientTransform="matrix(1 0 0 1 -14789.8076 0)">
      <stop offset="0" stop-color="#f9b776"/>
      <stop offset="1" stop-color="#f47960"/>
    </linearGradient>
    <path d="M273 34.3s-4.3 18.1-7.2 26.2c-.4 1.1.5 2.2 1.6 2.5 4.1 1 13.7 3.2 18.4 2.3 1-.2 1.7-1 1.8-1.9l2.7-24.6-17.3-4.5z" fill="url(#SVGID_16_)"/>
    <g>
      <linearGradient id="SVGID_17_" gradientUnits="userSpaceOnUse" x1="15083.542" y1="26.203" x2="15050.481" y2="51.499" gradientTransform="matrix(1 0 0 1 -14789.8076 0)">
        <stop offset="0" stop-color="#f9b776"/>
        <stop offset="1" stop-color="#f47960"/>
      </linearGradient>
      <path d="M292.5 14.5s5.8 13.3 6.2 20.3c.4 7 1.9 11.5-6.2 12.9-8.1 1.4-14.9-2.6-18.5-9.6 0 0-5.8-10.7-4.5-15.1 1.3-4.4 23-8.5 23-8.5z" fill="url(#SVGID_17_)"/>
      <linearGradient id="SVGID_18_" gradientUnits="userSpaceOnUse" x1="15060.315" y1="6.234" x2="15090.252" y2="44.777" gradientTransform="matrix(1 0 0 1 -14789.8076 0)">
        <stop offset="0" stop-color="#2b3582"/>
        <stop offset="1" stop-color="#150e42"/>
      </linearGradient>
      <path d="M276.7 33.1h1s-4.2-8.6-.5-10.1 18.3-4.5 21.5-9.7c3-5 .3-11.5-3.7-13.3-.3-.1-.6 0-.7.3l-.3.6c-.2.4-.9.4-1-.1-.1-.4-.7-.5-1-.2-1 1.6-3.6 4.1-10.6 5.4-9.9 1.8-16.5 5.9-16.7 12.7 0 .4-.5.7-.8.4-.7-.4-1.9-.7-3.5.7-2.7 2.3-1.6 8.3 4.4 13.2.3.2.3.7 0 .9-1.1.7-2.7 2.4 1.5 4.6 4.3 2.3 6.8 2 7.8 1.8.3-.1.4-.3.4-.6l-.4-6.1c0-.3.2-.6.5-.6h2.1z" fill="url(#SVGID_18_)"/>
      <linearGradient id="SVGID_19_" gradientUnits="userSpaceOnUse" x1="15079.441" y1="20.843" x2="15046.381" y2="46.139" gradientTransform="matrix(1 0 0 1 -14789.8076 0)">
        <stop offset="0" stop-color="#f9b776"/>
        <stop offset="1" stop-color="#f47960"/>
      </linearGradient>
      <path d="M277 34.4s-2.2-8.5-6-6.1c-3.8 2.4 2 9.5 5 9.8l1-3.7z" fill="url(#SVGID_19_)"/>
    </g>
    <linearGradient id="SVGID_20_" gradientUnits="userSpaceOnUse" x1="260.771" y1="131.63" x2="179.115" y2="222.781">
      <stop offset="0" stop-color="#f9b776"/>
      <stop offset="1" stop-color="#f47960"/>
    </linearGradient>
    <path d="M226.5 156.2s10-3.8 13-2.4 8.2 6.8 8.2 6.8-6 4.4-9.2 2.8c-3.2-1.6-10.6 1.9-13 3.2-2.3 1.3-7.6-4.5 1-10.4z" fill="url(#SVGID_20_)"/>
    <linearGradient id="SVGID_21_" gradientUnits="userSpaceOnUse" x1="286.153" y1="13.076" x2="144.996" y2="203.607">
      <stop offset="0" stop-color="#fdf53f"/>
      <stop offset="1" stop-color="#d93c65"/>
    </linearGradient>
    <path d="M209 131.2c-.2-3.3.5-6.7 2.7-10.1 11.7-18.2 37.9-22.8 37.9-22.8l-6.4-37.5s-44.6 19.8-54.6 54c-3.2 11.1-.7 20.3 4.2 27.7 5.4-7.5 11.4-10.4 16.2-11.3z" fill="url(#SVGID_21_)"/>
    <linearGradient id="SVGID_22_" gradientUnits="userSpaceOnUse" x1="242.586" y1="115.34" x2="160.93" y2="206.491">
      <stop offset="0" stop-color="#f9b776"/>
      <stop offset="1" stop-color="#f47960"/>
    </linearGradient>
    <path d="M209 131.2c-4.9.9-10.8 3.8-16.1 11.2 10.2 15.4 30.7 23 30.7 23l5.8-8.2c0-.1-19.3-11.9-20.4-26z" fill="url(#SVGID_22_)"/>
    <g>
      <linearGradient id="SVGID_23_" gradientUnits="userSpaceOnUse" x1="-6492.817" y1="1182.319" x2="-6667.963" y2="1363.802" gradientTransform="matrix(-0.9776 -0.2106 -0.2106 0.9776 -4442.6987 -489.153)">
        <stop offset="0" stop-color="#f9b776"/>
        <stop offset="1" stop-color="#f47960"/>
      </linearGradient>
      <path d="M396.9 34.9c.1 1.1-4 1.9-5.3-2.9.4-2.1 1-11 2.6-12.4 8.4-7.4 23.3-15.8 23.3-15.8 1.7 2.5-.5 4.2-.5 4.2l-7.5 5c.8 2.6 1.9 4.9 2 7.8.1 2.2-.7 4.4-2.2 6.1-1.5 1.7-3.5 3.9-5.3 5.6-3.3 3.1-7.1 2.4-7.1 2.4z" fill="url(#SVGID_23_)"/>
      <linearGradient id="SVGID_24_" gradientUnits="userSpaceOnUse" x1="396.067" y1="23.474" x2="407.56" y2="23.474">
        <stop offset="0" stop-color="#f9b776"/>
        <stop offset="1" stop-color="#f47960"/>
      </linearGradient>
      <path d="M401 31.2l-1.3-.5c.4-.9 3.8-9.1 5.5-10.9.6-.7 1-1.3.9-1.7 0-.2-.1-.5-.3-.7l-6 3.2-2.7 4.2-1.2-.7 2.9-4.5 7.1-3.8.4.3c.7.6 1.1 1.2 1.2 2 .1.9-.4 1.8-1.3 2.7-1.2 1.3-4.1 8-5.2 10.4z" fill="url(#SVGID_24_)"/>
    </g>
  </g>
</svg>
