<svg enable-background="new 0 0 632.8 453.9" viewBox="0 0 632.8 453.9" xmlns="http://www.w3.org/2000/svg" xmlns:xlink="http://www.w3.org/1999/xlink"><defs><path id="a" d="m382.6 362.2c-11.5-21.9-25.2-55.9-22.1-96.4 3.6-46.5 25.9-59 39.6-110.2 19.5-73-22.9-117.5 5.3-143.2 13.8-12.5 38-16.1 54.6-8.1 47.3 22.9 56 152.1-3.7 211.8-27 27-54.1 28.3-72.4 60.8-16 28.8-9 62.4-1.3 85.3z"/><linearGradient id="b" gradientUnits="userSpaceOnUse" x1="477.619" x2="370.7534" y1="51.5541" y2="223.639"><stop offset="0" stop-color="#79acff"/><stop offset="1" stop-color="#5966e2"/></linearGradient><clipPath id="c"><use xlink:href="#a"/></clipPath><linearGradient id="d" gradientUnits="userSpaceOnUse" x1="553.97" x2="455.5199" y1="72.5993" y2="366.3365"><stop offset="0" stop-color="#7de3f6"/><stop offset=".9964" stop-color="#6175d7"/></linearGradient><clipPath id="e"><use xlink:href="#ag"/></clipPath><linearGradient id="f"><stop offset="0" stop-color="#5966e2"/><stop offset="1" stop-color="#79a2ff"/></linearGradient><linearGradient id="g" gradientTransform="matrix(.9619 .2733 -.2733 .9619 758.6176 167.1799)" gradientUnits="userSpaceOnUse" x1="-207.0614" x2="-146.6564" xlink:href="#f" y1="196.602" y2="149.6203"/><clipPath id="h"><use xlink:href="#ah"/></clipPath><clipPath id="i"><use xlink:href="#ai"/></clipPath><linearGradient id="j" gradientTransform="matrix(-.9891 .1467 .1467 .9891 -2353.4231 -3.0228)" gradientUnits="userSpaceOnUse" x1="-2334.616" x2="-2561.0264" xlink:href="#f" y1="661.5288" y2="847.509"/><linearGradient id="k"><stop offset="0" stop-color="#ff5752"/><stop offset=".9964" stop-color="#ff5e56"/></linearGradient><linearGradient id="l" gradientUnits="userSpaceOnUse" x1="191.6646" x2="406.1982" xlink:href="#k" y1="235.2388" y2="235.2388"/><linearGradient id="m"><stop offset="0" stop-color="#311944"/><stop offset="1" stop-color="#893976"/></linearGradient><linearGradient id="n" gradientUnits="userSpaceOnUse" x1="171.9878" x2="186.1617" xlink:href="#m" y1="234.3861" y2="234.3861"/><linearGradient id="o" gradientUnits="userSpaceOnUse" x1="371.1463" x2="275.8172" xlink:href="#m" y1="202.2093" y2="214.5364"/><linearGradient id="p" gradientUnits="userSpaceOnUse" x1="193.5505" x2="383.5102" xlink:href="#m" y1="329.919" y2="116.7939"/><linearGradient id="q" gradientUnits="userSpaceOnUse" x1="310.1307" x2="297.825" xlink:href="#m" y1="81.9575" y2="102.8398"/><linearGradient id="r" gradientUnits="userSpaceOnUse" x1="297.0052" x2="319.3344" xlink:href="#m" y1="246.1177" y2="246.1177"/><linearGradient id="s" gradientTransform="matrix(.7558 -.6548 .6548 .7558 -1905.8141 82.0265)" gradientUnits="userSpaceOnUse" x1="1660.598" x2="1756.7246" y1="1536.4501" y2="1761.9105"><stop offset="0" stop-color="#ffc33e"/><stop offset="1" stop-color="#ff903e"/></linearGradient><linearGradient id="t" gradientTransform="matrix(.7558 -.6548 .6548 .7558 -1905.8141 82.0265)" gradientUnits="userSpaceOnUse" x1="1688.2599" x2="1784.387" y1="1524.6563" y2="1750.1179"><stop offset="0" stop-color="#ffbb3e"/><stop offset="1" stop-color="#ff903e"/></linearGradient><linearGradient id="u" gradientTransform="matrix(.7558 -.6548 .6548 .7558 -1905.8141 82.0265)" gradientUnits="userSpaceOnUse" x1="1681.291" x2="1866.2194" y1="1519.9146" y2="1953.6555"><stop offset="0" stop-color="#ff903e"/><stop offset="1" stop-color="#ff903e"/></linearGradient><linearGradient id="v"><stop offset="0" stop-color="#ffc444"/><stop offset=".9964" stop-color="#f36f56"/></linearGradient><linearGradient id="w" gradientUnits="userSpaceOnUse" x1="593.7138" x2="595.858" xlink:href="#v" y1="378.5452" y2="388.5202"/><linearGradient id="x" gradientUnits="userSpaceOnUse" x1="587.2214" x2="589.3656" xlink:href="#v" y1="379.9407" y2="389.916"/><linearGradient id="y" gradientUnits="userSpaceOnUse" x1="565.0053" x2="567.3103" xlink:href="#v" y1="267.0363" y2="274.8156"/><linearGradient id="z" gradientUnits="userSpaceOnUse" x1="592.0009" x2="592.6534" xlink:href="#m" y1="380.8464" y2="385.6008"/><linearGradient id="A" gradientUnits="userSpaceOnUse" x1="586.5805" x2="587.2331" xlink:href="#m" y1="381.5903" y2="386.3448"/><linearGradient id="B" gradientUnits="userSpaceOnUse" x1="570.9099" x2="580.5084" xlink:href="#v" y1="294.0494" y2="304.6461"/><linearGradient id="C" gradientUnits="userSpaceOnUse" x1="572.57" x2="580.3387" xlink:href="#v" y1="293.1425" y2="301.7191"/><linearGradient id="D" gradientUnits="userSpaceOnUse" x1="572.1868" x2="579.9557" xlink:href="#v" y1="293.4895" y2="302.0663"/><linearGradient id="E" gradientUnits="userSpaceOnUse" x1="547.2985" x2="549.8121" xlink:href="#v" y1="274.2164" y2="282.6996"/><linearGradient id="F" gradientUnits="userSpaceOnUse" x1="573.5338" x2="563.0927" xlink:href="#k" y1="291.3886" y2="323.7064"/><linearGradient id="G" gradientUnits="userSpaceOnUse" x1="451.6061" x2="459.2505" xlink:href="#v" y1="394.8243" y2="423.9103"/><linearGradient id="H" gradientUnits="userSpaceOnUse" x1="493.7107" x2="501.3551" xlink:href="#v" y1="383.7584" y2="412.8443"/><linearGradient id="I" gradientUnits="userSpaceOnUse" x1="472.0671" x2="497.1193" xlink:href="#m" y1="372.0076" y2="372.0076"/><linearGradient id="J" gradientUnits="userSpaceOnUse" x1="497.06" x2="460.5161" xlink:href="#m" y1="362.9214" y2="387.2841"/><linearGradient id="K" gradientUnits="userSpaceOnUse" x1="481.7803" x2="454.9315" xlink:href="#m" y1="397.9348" y2="353.9327"/><linearGradient id="L" gradientUnits="userSpaceOnUse" x1="445.2068" x2="450.039" xlink:href="#v" y1="319.5695" y2="319.5695"/><linearGradient id="M" gradientUnits="userSpaceOnUse" x1="477.6255" x2="484.0891" y1="324.2451" y2="351.8395"><stop offset="0" stop-color="#7ef2a5"/><stop offset=".9964" stop-color="#7ef2a5"/></linearGradient><linearGradient id="N" gradientUnits="userSpaceOnUse" x1="493.7357" x2="500.5722" xlink:href="#v" y1="318.2923" y2="323.575"/><linearGradient id="O" gradientUnits="userSpaceOnUse" x1="495.4971" x2="502.3336" xlink:href="#v" y1="316.0129" y2="321.2957"/><linearGradient id="P" gradientUnits="userSpaceOnUse" x1="495.1147" x2="501.9514" xlink:href="#v" y1="316.5076" y2="321.7905"/><linearGradient id="Q" gradientUnits="userSpaceOnUse" x1="310.2509" x2="305.2789" xlink:href="#v" y1="151.8647" y2="161.3114"/><linearGradient id="R" gradientUnits="userSpaceOnUse" x1="319.4435" x2="313.3529" xlink:href="#v" y1="162.1065" y2="179.7569"/><linearGradient id="S"><stop offset="0" stop-color="#ff9085"/><stop offset="1" stop-color="#fb6fbb"/></linearGradient><linearGradient id="T" gradientUnits="userSpaceOnUse" x1="298.3403" x2="289.3907" xlink:href="#S" y1="154.1981" y2="164.1421"/><linearGradient id="U" gradientUnits="userSpaceOnUse" x1="287.5869" x2="279.0413" xlink:href="#v" y1="160.6833" y2="166.774"/><linearGradient id="V" gradientTransform="matrix(-.8677 -.4971 -.4971 .8677 424.5986 144.3788)" gradientUnits="userSpaceOnUse" x1="56.8411" x2="48.2956" xlink:href="#v" y1="120.6523" y2="126.7429"/><linearGradient id="W" gradientTransform="matrix(-.8677 -.4971 -.4971 .8677 424.5986 144.3788)" gradientUnits="userSpaceOnUse" x1="56.7963" x2="48.2507" xlink:href="#v" y1="120.5909" y2="126.6816"/><linearGradient id="X" gradientUnits="userSpaceOnUse" x1="267.9833" x2="266.5849" xlink:href="#v" y1="239.3497" y2="248.8586"/><linearGradient id="Y" gradientUnits="userSpaceOnUse" x1="266.5378" x2="271.9566" xlink:href="#m" y1="244.1409" y2="244.1409"/><linearGradient id="Z" gradientUnits="userSpaceOnUse" x1="288.6004" x2="286.4562" xlink:href="#v" y1="236.8057" y2="249.6707"/><linearGradient id="aa" gradientUnits="userSpaceOnUse" x1="285.39" x2="289.5957" xlink:href="#m" y1="243.1257" y2="243.1257"/><linearGradient id="ab" gradientUnits="userSpaceOnUse" x1="256.0039" x2="276.3889" xlink:href="#v" y1="211.7915" y2="221.2383"/><linearGradient id="ac" gradientUnits="userSpaceOnUse" x1="256.1067" x2="276.4917" xlink:href="#v" y1="211.5698" y2="221.0165"/><linearGradient id="ad" gradientUnits="userSpaceOnUse" x1="294.1174" x2="273.2352" xlink:href="#v" y1="200.6713" y2="227.2713"/><linearGradient id="ae" gradientUnits="userSpaceOnUse" x1="303.9909" x2="265.2096" xlink:href="#S" y1="156.8392" y2="205.3159"/><linearGradient id="af" gradientUnits="userSpaceOnUse" x1="300.8557" x2="262.0744" xlink:href="#S" y1="154.3311" y2="202.8078"/><path id="ag" d="m394.8 368.9c-8.2-17.8-17.9-46.4-9.8-76.6 14.1-52.6 66.5-50.7 99.4-112 26.6-49.4 6.5-76.7 40.7-114 5.7-6.2 35.7-40.2 66.8-33.1 17.5 4 27.6 19.2 29.5 22.1 28.7 43.2.5 130.8-53.3 182-30.9 29.4-44.3 26.2-101.9 66.4-33.8 23.4-57.2 48.3-71.4 65.2z"/><path id="ah" d="m209.5 394.4c4.8-19.1 9-48-.5-79.1-10.9-35.7-30-41.7-49.4-79.3-27.7-53.7-3.6-95.7-29.4-110.9-12.6-7.4-31.5-6.1-42.5 3-31.5 26-15.1 128.4 40.4 164.8 25.1 16.5 45.7 12.9 65.3 35.1 17.2 19.7 17.9 47.2 16.1 66.4z"/><path id="ai" d="m248.9 397.9c2.1-15.5 2.8-39.7-10.4-61-23.1-37-62.8-23.3-102.3-62.6-31.9-31.6-22.9-57.3-57.8-77.9-5.8-3.5-36.7-22.5-58.9-9.8-12.5 7.2-16.7 21.3-17.5 23.9-11.9 39.8 30.1 100.3 83.3 127 30.5 15.3 40.1 9.7 93.6 27.1 31.4 10.1 55.2 23.7 70 33.3z"/></defs><path d="m214.9 379.3c-35.9-1.2-62 .2-114.1 3 0 0-36.6 1.2-36.5 4.5.1 1.9 36-3.1 45.5 13.4 4.3 7.5-1.3 11.9 2.2 19.4 7.1 15.4 36.2 9.7 79.8 19.4 22.5 5 22.3 8.2 38.8 11.9 43.6 9.9 68.7-7 124.5-18.6 26.5-5.5 56.4-6.9 116.3-9.7 38.1-1.8 71.5-1.9 115.6-15.7 8.9-2.8 45.2-14.1 44-21.6-1-6.7-31.1-6.6-89.5-8.2-88.8-2.4-67.9-3.5-117.8-4.5-114.2-2.2-114.3 9.8-208.8 6.7z" fill="#ebeff2"/><use fill="url(#b)" xlink:href="#a"/><g clip-path="url(#c)" fill="#fff" opacity=".5"><path d="m368.5 304.8-.7-.1c1-10.1 2.9-20.2 5.7-30 6.4-22.5 15.3-35.6 26.6-52.3 7.3-10.8 15.6-23.1 24.8-40.2 17.1-32.1 22.2-43.2 25.6-60.4 6.7-34 .3-62.6-4.2-76.7-6.3-19.8-16.5-38.1-30.3-54.3l.6-.5c13.9 16.3 24.1 34.7 30.4 54.7 4.5 14.1 10.9 42.9 4.2 77.1-3.4 17.3-8.5 28.4-25.6 60.6-9.1 17.2-17.5 29.4-24.8 40.3-11.3 16.6-20.1 29.7-26.5 52-2.8 9.7-4.8 19.7-5.8 29.8z"/><path d="m453.4 98.3-.1-.6c-4.2-23.7-22.4-36.7-37-43.5-15.8-7.3-30.7-9.1-30.9-9.1l.1-.7c.2 0 15.2 1.8 31.1 9.2 14.6 6.8 32.8 19.8 37.3 43.4 2.3-1.8 12.1-10 20-23.4 8.3-14 16-36.6 6.2-65.2l.7-.2c9.9 28.9 2.1 51.8-6.3 65.9-9 15.3-20.6 23.8-20.7 23.9z"/><path d="m449.2 176c-11.3 0-19.2-2.1-19.4-2.1l-.3-.1v-.3c2.6-24.3-5.6-40.6-13-50.1-8-10.2-16.7-14.8-16.8-14.8l.3-.7c.1 0 8.9 4.7 17 15 7.4 9.5 15.7 26 13.2 50.3 3.9 1 43.1 9.7 70.5-18.3l.5.5c-16.3 16.9-37.1 20.6-52 20.6z"/><path d="m429.3 224.8c-16.7 0-26.2-5.9-26.4-6l-.2-.1.1-.3c6.9-25.3-14.2-61.8-14.4-62.1l.6-.4c.2.4 21.4 36.9 14.6 62.4 2.7 1.6 28.8 15.3 70-6.5l.3.7c-17.8 9.5-33 12.3-44.6 12.3z"/></g><use fill="url(#d)" xlink:href="#ag"/><g clip-path="url(#e)" fill="#fff" opacity=".5"><path d="m394.7 392.8c-2.9-47.1 6.6-81.8 28.1-103.2 10.5-10.5 20.1-14.3 30.3-18.4 10.9-4.3 22.2-8.8 35.1-22.4 12.5-13.1 15.5-23.3 19.3-36.2 3.4-11.6 7.6-26 20.2-47.1 11-18.5 20.1-28.2 28.1-36.8 8.7-9.3 15.5-16.6 21.6-31.7 10-24.6 11-53 3-84.2l.7-.2c8 31.4 7 59.9-3 84.7-6.2 15.2-13.1 22.6-21.8 31.9-8 8.5-17 18.2-28 36.7-12.5 21-16.8 35.4-20.2 46.9-3.8 13-6.8 23.2-19.5 36.5-13 13.6-24.4 18.2-35.4 22.5-10.1 4-19.6 7.8-30 18.2-21.3 21.3-30.7 55.8-27.8 102.7z"/><path d="m552.2 133.3v-.5c0-.7 3.2-68-26.5-87.3l.4-.6c8.7 5.7 20.1 19.2 24.9 51.5 2.6 17.4 2.1 33.1 2 36 34.1-8.3 55.8-28 68-43.1 13.3-16.4 18.5-31.1 18.6-31.2l.7.2c-.1.1-5.3 14.9-18.7 31.4-12.3 15.2-34.3 35.2-68.9 43.5z"/><path d="m531.6 189.8c-9.4 0-15.2-.9-15.3-.9h-.3v-.3c.1-34.7-20.2-78.4-20.4-78.9l.7-.3c.2.4 20.5 44.1 20.5 78.8 2.5.3 19.5 2.4 42-1.5 22.3-3.8 54.8-14.5 82.4-43.2l.5.5c-27.8 28.9-60.4 39.6-82.8 43.5-10.7 1.7-20.1 2.3-27.3 2.3z"/><path d="m510.2 274.7c-6.6 0-12.5-.3-17.5-.8-18.7-1.8-29.7-6-29.9-6.1l-.4-.1.2-.4c16.3-36.6-6.6-83.3-6.9-83.8l.7-.3c.2.5 23.2 47.3 7.1 84.1 4.4 1.5 46.9 15.5 106.9-2.3l.2.7c-23.5 7-44.2 9-60.4 9z"/></g><path d="m352.7 351c10.3-8.3 27.3-20.4 50.4-30.1 41.2-17.2 60.9-9.4 77.8-28.2 17.4-19.4 4.5-36.8 25.4-58.6 1.8-1.8 24.3-24.6 46.1-17.8 15.3 4.8 22 21.5 25.2 29.3 12.3 30.4 8.7 78-23.1 103-30.1 23.8-70.4 15.4-83.2 12.7-22.4-4.8-28.1-13.1-50.9-17.4-27.7-4.9-52 1.3-67.7 7.1z" fill="url(#g)"/><path d="m162.4 383.4c-.8 0-26.6.2-26.8 3.4-.2 2 9.8 3.2 24.6 9.7 15.4 6.7 27 15.1 26.1 17.2-.8 1.9-12.1-4.4-24.2.4-4 1.6-10.5 5.3-10.1 8.6.7 4.9 17 4.9 42.9 9.7 24.7 4.6 21.6 6.8 35.8 8.6 21.4 2.7 27.7-2.4 81.3-10.4 14.8-2.2 31-4.4 31-6.3-.1-2.1-18.9-1.1-42.5-10.4-5.6-2.2-15.8-6.3-15.3-8.9.7-3.6 19.5-1.2 54.1-2.2 27.7-.8 43.4-3.2 57.4-6.7 5.8-1.4 30.7-7.7 30.2-12.3-.4-4.2-21.3-5.2-48.1-6-123.2-3.9-141.1 5-216.4 5.6z" fill="#d8dee8"/><use fill="#79acff" xlink:href="#ah"/><g clip-path="url(#h)" fill="#fff" opacity=".5"><path d="m209.9 347.2c-2.5-7.7-5.8-15.2-9.6-22.3-8.8-16.4-17.8-25.1-29.2-36.1-7.5-7.2-15.9-15.4-25.8-27.2-18.6-22.2-24.4-30-30.1-42.9-11.2-25.5-11.4-49.1-10.5-60.9 1.2-16.7 5.7-32.9 13.2-48l.7.3c-7.5 15-11.9 31.1-13.1 47.7-.9 11.7-.6 35.2 10.5 60.6 5.6 12.8 11.4 20.6 30 42.7 9.9 11.8 18.3 20 25.8 27.2 11.5 11.1 20.5 19.8 29.3 36.3 3.8 7.2 7.1 14.7 9.6 22.5z"/><path d="m109.5 200.5-.6-.3c-.1 0-10.3-4.8-19.9-15.2-8.8-9.6-18.8-26.1-16.4-50.4l.7.1c-2.3 24 7.5 40.4 16.2 49.9 8.2 8.9 16.8 13.6 19.1 14.7-.8-19.2 10.6-32.4 20.4-40.2 10.7-8.5 21.7-12.5 21.8-12.5l.2.7c-.4.2-43.6 15.9-41.7 52.6z"/><path d="m112.4 262.1c-9 0-19.2-2.1-29.1-8.7l.4-.6c25.4 17 53.1 3.8 56.2 2.2-6.2-18.6-2.9-32.8 1-41.5 4.3-9.5 10.1-14.6 10.2-14.7l.5.6c-.2.2-22.9 20.4-10.9 55.7l.1.3-.3.2c-.1 0-12.3 6.5-28.1 6.5z"/><path d="m136.8 296.6c-6.5 0-14-.9-22.6-3.4l.2-.7c19.2 5.5 32.8 3.3 40.9.5 7.7-2.7 12-6.4 12.9-7.3-9.6-18.8-.2-51-.1-51.3l.7.2c0 .1-2.4 8.2-3.6 18.5-1.1 9.5-1.3 22.8 3.8 32.5l.1.2-.2.2c-.2.1-10.5 10.6-32.1 10.6z"/></g><use fill="#79d3f1" xlink:href="#ai"/><g clip-path="url(#i)" fill="#fff" opacity=".5"><path d="m253.9 416.4c-8.8-36.6-24-60.8-45.3-72.1-10.4-5.5-18.6-6.2-27.2-6.9-9.5-.8-19.3-1.6-32.4-9-12.8-7.2-17.5-14.4-23.4-23.4-5.3-8.1-11.9-18.1-26.4-31.2-12.7-11.5-21.9-16.9-30-21.5-8.9-5.3-15.9-9.3-24.2-19.5-13.5-16.6-20.9-38.3-22.1-64.2h.7c1.2 25.8 8.6 47.3 22 63.8 8.2 10.1 15.1 14.1 23.9 19.2 8.1 4.7 17.3 10 30.1 21.6 14.6 13.2 21.2 23.3 26.5 31.4 5.9 9 10.6 16.1 23.2 23.2 13 7.3 22.7 8.1 32.1 8.9 8.7.7 17 1.4 27.5 7 21.5 11.4 36.8 35.8 45.6 72.6z"/><path d="m66.5 254.4c-25.3 0-44.6-9.3-56.7-17.4-14.1-9.5-21.6-19.6-21.7-19.7l.6-.4c.1.1 7.5 10.1 21.5 19.6 12.9 8.7 34 18.7 62 17.1-1.8-5.2-17.3-52.4.2-73.3l.6.5c-18.2 21.7-.1 72.5.1 73l.2.5h-.5c-2.1.1-4.2.1-6.3.1z"/><path d="m65.2 298.2c-16.6 0-37.1-3.3-57.9-15l.4-.7c27.9 15.6 55.2 16.2 73.2 13.9 17.9-2.3 30.4-7.7 32.4-8.6-8.1-26.7-2.7-64.8-2.7-65.2l.7.1c-.1.4-5.4 38.6 2.7 65.2l.1.3-.3.1c-.1.1-13.3 6.3-32.9 8.8-4.7.7-10 1.1-15.7 1.1z"/><path d="m90.1 360v-.7c49.8-.4 79-20.7 82.3-23.2-20.9-24.5-14.3-65.6-14.2-66.1l.7.1c-.1.4-6.8 41.6 14.3 65.8l.3.3-.3.2c-.3.3-30.2 23.2-83.1 23.6z"/></g><path d="m230.3 401.4c-7.3-7.7-19.5-19-36.9-29.1-30.9-17.9-47.4-13.8-58.8-30.4-11.8-17.2.2-29.7-14.1-49.2-1.2-1.6-16.7-22-34.8-18.9-12.6 2.2-19.7 14.8-23.1 20.7-12.9 22.9-15 61 7.7 84.2 21.5 22 54.3 19.5 64.8 18.7 18.3-1.5 23.7-7.5 42.2-8.5 22.4-1.2 41.1 6.3 53 12.5z" fill="url(#j)"/><path d="m469.6 394.6c-4.5-.4-14.8-1.1-28 .4-6.3.7-16.3 1.9-16.4 4.1-.1 2.5 12 6.1 23.9 6.7 11.3.6 14.6-1.9 30.6-3.7 18.6-2.1 29.4-.4 29.5-1.5.1-1.6-22.9-4.6-39.6-6z" fill="#d8dee8"/><path d="m578.5 382.3c-6.9.4-20.9 1.8-20.9 3.4 0 2 23.1 2.6 25.4 2.6 1.5 0 9.6.2 19.4-2.6 2.7-.8 4.5-1.3 4.5-1.9-.2-1.6-15-2.4-28.4-1.5z" fill="#d8dee8"/><path d="m157.8 86.2v295c0 6.5 4.5 12.2 10.8 13.7l27.8 6.6c2.6.6 5.4.9 8.1.9h.6l4.3-.4 26.1-240.3-34-93.5-31.5 4c-6.9.9-12.2 6.9-12.2 14z" fill="#e53c3c"/><path d="m191.7 80.5v309.5c0 7.1 6.1 12.8 13.2 12.2l190-13.8c6.4-.5 11.4-5.8 11.4-12.2v-287.4c0-6.6-5.2-12-11.7-12.3l-190-8.4c-7.1-.2-12.9 5.4-12.9 12.4z" fill="url(#l)"/><path d="m177.3 387.1v-304c0-5.3 4-10.6 8.9-12.9l-5.6.7c-5 1.8-8.5 6.7-8.5 12.2v304c0 3.8 1.6 7.3 4.3 9.7l8 1.9c-4.3-2.3-7.1-6.7-7.1-11.6z" fill="url(#n)"/><path d="m220.9 111.6v204.4c0 5.9 4.8 10.8 10.8 10.8l140.3-5.2c5.9 0 10.8-4.8 10.8-10.8v-194.2c0-5.7-4.5-10.5-10.3-10.7l-140.3-5c-6.2-.4-11.3 4.5-11.3 10.7z" fill="url(#o)"/><path d="m377.9 310.8v-194.2c0-5.7-4.5-10.5-10.3-10.7l-137.6-5c-5.1.8-9.1 5.2-9.1 10.6v204.5c0 5.9 4.8 10.8 10.8 10.8l135.4-5.2c5.9-.1 10.8-4.9 10.8-10.8z" fill="url(#p)"/><path d="m375.5 366.5-146.5 8.9c-4.4.3-8.1-3.2-8.1-7.7v-17.5c0-4.1 3.2-7.5 7.3-7.7l146.5-6.5c4.4-.2 8 3.3 8 7.7v15.1c0 4.1-3.1 7.4-7.2 7.7z" fill="#fff" opacity=".79"/><path d="m394.5 76.5-158.9-7c0 1.9.2 3.8.4 5.8 4.3 35.5 37.4 41.2 50.2 80.8 11.7 36.3-11.8 44.9 2 76.8 13 29.9 37.2 30.5 51.7 68.2 6.4 16.6 3.2 20.2 8.5 37.6 4.6 14.9 13.2 32.5 29.9 50.9l16.5-1.2c6.4-.5 11.4-5.8 11.4-12.2v-287.4c0-6.6-5.2-12-11.7-12.3z" fill="#fff" opacity=".3"/><ellipse cx="305" cy="90.6" fill="url(#q)" rx="3.2" ry="5.2"/><path d="m348.5 204.6-86.2 1.5c-6.6.1-11.9 5.4-11.9 11.7v55.9c0 6.4 5.3 11.3 11.9 11l86.2-3.6c6.2-.3 11.2-5.5 11.2-11.6v-54.1c0-6-5-10.9-11.2-10.8z" fill="#fff"/><path d="m347.2 199c-2.6 0-4.7-2-4.7-4.6v-12.2c0-12.3-10.1-22.2-22.6-22.2l-28.1.1c-12.8 0-23.3 10.3-23.3 22.9v12.5c0 2.7-2.2 4.9-5 4.9s-5-2.1-5-4.8v-12.6c0-17.9 15-32.5 33.2-32.5h28.1c17.7 0 32 14.2 32 31.6v12.2c.1 2.5-2 4.7-4.6 4.7z" fill="#fff"/><path d="m319.3 235.6c0-6.2-5.3-11.1-11.7-10.6-5.7.4-10.3 5.1-10.6 10.6-.2 4.3 2.1 8.1 5.6 10 1.5.8 2.2 2.5 1.9 4.2l-2.5 14.2c-.3 1.8 1.1 3.4 3 3.3l6.3-.2c1.9-.1 3.3-1.8 2.9-3.5l-2.5-14.1c-.3-1.7.6-3.4 2.1-4.3 3.4-2 5.5-5.6 5.5-9.6z" fill="url(#r)"/><path d="m461.7 335-151.6-174.6c-2.9-3.3-2.3-8.4 1.2-10.9l115-83.8c3.1-2.2 7.3-1.8 9.9 1l152.6 166.3c2.9 3.2 2.5 8.2-.9 10.9l-115.9 92.1c-3.1 2.5-7.7 2-10.3-1z" fill="#d8dee8"/><path d="m461.7 332.7-151.6-174.7c-2.9-3.3-2.3-8.4 1.2-10.9l115-83.8c3.1-2.2 7.3-1.8 9.9 1l152.5 166.4c2.9 3.2 2.5 8.2-.9 10.9l-115.8 92c-3.1 2.5-7.7 2.1-10.3-.9z" fill="#fff"/><path d="m461.7 332.7-151.6-174.7c-2.9-3.3-2.3-8.4 1.2-10.9l115-83.8c3.1-2.2 7.3-1.8 9.9 1l152.5 166.4c2.9 3.2 2.5 8.2-.9 10.9l-115.8 92c-3.1 2.5-7.7 2.1-10.3-.9z" fill="#f4f7fa"/><path d="m588.8 230.7-152.5-166.4c-2.6-2.8-6.8-3.2-9.9-1l-44.7 32.6c.6 3.4 1.6 6.9 3 10.4 14.7 35.9 58.9 26.8 79.8 62.6 15.2 26 12.3 65.9 6.7 89.1-3 12.4-7.1 21.1-5.2 34.7 1.8 13.3 8.4 24.3 15.9 33.1l106-84.2c3.4-2.7 3.8-7.7.9-10.9z" fill="#fff"/><path d="m418.3 174.9 27.8 32.1 3.6-3.1 5 5.7-3.6 3.1 2.5 2.9 3.6-3.1 2.9 3.3-3.6 3.1 4 4.6 1.7-1.5 5.1 5.9-1.7 1.5 2.3 2.6 3.3-2.8 6.1 7.1-3.3 2.8 4.7 5.5 3.6-3.1 5.1 5.8-3.6 3.1 5.9 6.8c.7.8 1.7 1.3 2.7 1.5l17 2.3c2.1.3 4.1-1 4.7-3.1l2.6-8.7c.4-1.4.1-3-.9-4.1l-70.8-81.7z" fill="url(#s)"/><path d="m386.8 117.4c-19.5 16.9-21.6 46.4-4.7 65.9s46.4 21.6 65.9 4.7 21.6-46.4 4.7-65.9c-16.8-19.5-46.3-21.6-65.9-4.7zm23.1 26.7c-4 3.4-9.9 3-13.4-1-3.4-4-3-9.9 1-13.4 4-3.4 9.9-3 13.4 1 3.4 4 3 9.9-1 13.4z" fill="url(#t)"/><path d="m452.8 122.1c-16.9-19.5-46.4-21.6-65.9-4.7s-21.6 46.4-4.7 65.9c13.7 15.9 35.8 20.2 54.1 12.2l3 3.4c4.4-3.9 7.7-4.6 10-4.3 6.7 1 6.4 10 16.8 19.8 8.7 8.2 13.4 6.1 20.4 14.7 4.9 6 4.8 9.7 8 15.4 2.8 5.1 7.8 11 17.2 16.2 1.2-.5 2.2-1.5 2.6-2.8l2.6-8.7c.4-1.4.1-3-.9-4.1l-58.7-67.8c10.4-16.8 9.2-39.3-4.5-55.2zm-55.3 7.7c4-3.4 9.9-3 13.4 1 3.4 4 3 9.9-1 13.4-4 3.4-9.9 3-13.4-1-3.4-4-2.9-10 1-13.4z" fill="url(#u)" opacity=".3"/><path d="m392.8 124.4c-15.7 13.6-17.4 37.3-3.8 53s37.3 17.4 53 3.8 17.4-37.3 3.8-53c-13.5-15.7-37.3-17.4-53-3.8zm17.1 19.7c-4 3.4-9.9 3-13.4-1-3.4-4-3-9.9 1-13.4 4-3.4 9.9-3 13.4 1 3.4 4 3 9.9-1 13.4z" fill="#fff" opacity=".15"/><path d="m593.5 382.7.1-2.3 1.5-.4-.6 2.7z" fill="url(#w)"/><path d="m586.3 380.8 1.3 1.2s.9-.1 1.1-.6l-1.1-1.8z" fill="url(#x)"/><path d="m562 265.3.4-1.3 3.4-2.9s.1 1.5-.8 1.9-1.7 1.1-1.7 1.1l-.5 1.1h-.8z" fill="url(#y)"/><path d="m589.8 333.2c.3 2.1.9 5.3 1.9 9.1 3 11.8 6.4 15.3 7.1 22.4.4 3.8 0 9.3-3.5 16.4-.7 0-1.4.1-2.1.1-.5-4-1.1-8.4-2.2-12.9-2.7-12.1-7-22.2-11.1-30.1 3.3-1.7 6.6-3.4 9.9-5z" fill="#26264f"/><path d="m590 383.6 3.3-1.2h1.5l.2 1c.1.4-.2.8-.6.8-1.6.3-5.4.8-4.4-.6z" fill="url(#z)"/><path d="m588.5 381.2c.6.4.8.7.8 1 0 .4-.4.5-.8 1.3-.5.8-.3 1.2-.7 1.5-.2.1-.3.2-1.6.2-1.2 0-1.8-.1-1.8-.2s.1-.4 1.8-1c.4-.7.8-1.4 1.2-2.1z" fill="url(#A)"/><path d="m596.7 366.4c-1.1-2.6-3.8-2.1-4.9-5.1-.9-2.3.4-3.2.2-6.6-.3-4.6-2.9-5.7-3.1-9.1-.1-1.5.3-3.6 2.1-6.1-.6-2.6-.9-4.8-1.2-6.3-3.3 1.7-6.6 3.3-10 5 4.2 7.8 8.4 17.9 11.1 30.1 1 4.5 1.7 8.9 2.2 12.9.7 0 1.4-.1 2.1-.1.2-.3.3-.7.5-1-.4-.6-.8-1.3-1-2.1-1.1-4.4 3.6-7.8 2-11.6z" fill="#26264f" opacity=".3"/><path d="m573.4 336.7c-1.7 6.8-1.6 12.5-1.3 16 .3 3.6 1.4 13.6 8.7 22.9 2 2.6 4 4.4 5.4 5.6.6-.5 1.2-1.1 1.9-1.6-1.5-2.7-3.2-6.6-4.5-11.6-1.1-4.6-2.2-8.8-1.3-14.3 1-6.1 4.1-11.6 4.3-12 1.2-2.2 2.5-3.9 2.2-6.2-.2-2.2-1.7-4.4-3.5-5.2-3.3-1.5-8.7.7-11.9 6.4z" fill="#26264f"/><path d="m561.4 265c-1.9 3.4-5.9 11.6-4.6 21.9.5 3.8 2.2 16.5 10.5 18.7 7.7 1.9 15-6.5 15.4-7-1.6-.5-11.7-3.7-16.8-14.2-4.5-9.3-1.9-18-1.3-19.9-1.1.1-2.1.3-3.2.5z" fill="#e85252"/><path d="m574.4 294.9.1.8c0 .7.6 1.3 1.2 1.4l3.8.8-7.6 3 .7-2.1c.2-.5.2-1 .2-1.5l-.2-1.6z" fill="url(#B)"/><path d="m573 296.2c-.2-.1-1.5-.3-1.7-1-.3-1 .6-2.2.8-2.4.5-.8.6-.9.8-1.1l.3-.2c.2-.1.8-.1 1 0 .4.1.8 1.8.6 4.3v.3c.1.1-1.8.1-1.8.1z" fill="url(#C)"/><path d="m571.7 291.3c.2.5.8.9 1.1 1.1 0 0 .2.1.3.3v.1c.2.5-.6 1-.5 1.2s.6 0 .7.1-.4.4-.3.5c0 .1.3 0 .5.2.1.1.1.2.1.4s.1.3.2.4c.3.4 1 .6 1.1.5 0 0 0-.1.1-.3 0 0 0-.2.2-.3.2-.3.5-.4.9-.7.7-.5.9-.9 1-1s0 0 0-.1c.2-.5-.2-1.1-.5-1.3-.3-.4-.8-.9-1.6-1.4-.2-.1-2.3-1.4-3-.8-.3.3-.4.8-.3 1.1z" fill="#26264f"/><path d="m572.9 294c.2-.2.5 0 .5.3s-.3.7-.6.6-.1-.6.1-.9z" fill="url(#D)"/><path d="m546 278 .4-1.7 3.1-2.5s.2 1.2-.5 1.6c-.8.5-1.7.8-1.8 1.3-.1.6-.3 1.1-.3 1.1z" fill="url(#E)"/><path d="m545.4 277.6c.8-.3 1.6-.5 2.4-.8.8 2.8 2.2 6.6 5.1 10.3 1 1.3 5.7 7.1 13.8 9.8 3.7 1.2 6.8 1.3 7.4 1.3 3.3.1 4.4-.6 6-.6 6.2.1 12.2 10.5 13.8 19.1 1.7 8.7-1.1 15.9-2.7 19.5-2.6 1.7-7.2 4.2-13.3 4.8-2.3.2-4.4.1-6.2-.1 0-1.7 0-4.2-.3-7.2-.4-3.2-1.4-11.5-6.4-19.2-2.9-4.6-3.2-2.8-9.5-10.5-4.5-5.6-7.5-9.3-9.1-14.9-1.4-4.7-1.3-8.8-1-11.5z" fill="url(#F)"/><path d="m583.3 334c-1.2-2.6-.3-4.4-2.1-7.3-2-3.3-4.3-2.7-7.2-5.6-4.3-4.3-1.6-7.6-5.5-12.1-3.6-4.1-6.9-2.4-10.4-7-1.9-2.5-1-3.1-3.1-7.5-3.5-7.1-7.2-7.8-8.6-12.7-.3-1.1-.5-2.6-.3-4.5-.2.1-.4.1-.6.2-.3 2.6-.4 6.8.9 11.4 1.6 5.6 4.6 9.4 9.1 14.9 6.3 7.7 6.6 5.9 9.5 10.5 5 7.8 6 16 6.4 19.2.3 2.9.4 5.4.3 7.2 1.8.2 3.8.3 6.2.1 4-.4 7.3-1.6 9.9-2.8-2.5-1.1-3.8-2.6-4.5-4z" fill="#e85252"/><path d="m446.8 399.7c-.6.4-.3 1.3.4 1.3 2.5 0 7.4.1 7.4-.2.1-.3-.8-1.9-.8-1.9h-2.6s-3.2.7-4.2.7c0 0-.1.1-.2.1z" fill="#26264f"/><path d="m453.2 396.5.6 2.5s-.9.8-2 0l-.9-2.3z" fill="url(#G)"/><path d="m495.7 390.4 2.1 2.3s-.4 1.4-1.3 1l-2.3-2z" fill="url(#H)"/><path d="m495.8 394.1-.4.7c-.2.4-.6.7-1.2.8s-1.3.3-1.3.9c0 .7 2.1.6 3.2.5.5 0 .9-.3 1.2-.7l1.2-2c.3-.5.3-1 0-1.5-.1-.1-.2-.3-.4-.4-.7-.6-2.3 1.7-2.3 1.7z" fill="#26264f"/><path d="m486.7 352c-4.8 10-3.4 15.6-1.5 19.1 2.1 4 6.1 6.3 9.6 13.6 1.2 2.5 1.9 4.7 2.3 6.2-1 .8-2 1.7-3 2.5-3.5-2-9-5.6-13.8-11.8-4.6-6-6.4-11.7-6.9-13.5-2.1-7.4-1.5-13.8-.8-17.4 4.9.3 9.3.9 14.1 1.3z" fill="url(#I)"/><path d="m490.6 386.3c-1.7-2.4-.7-4-2.5-6.5-2.8-3.7-7-2.8-7.9-5.8-.5-1.7.8-2.1 1-5.2.2-4.1-2-5.6-1.3-8 .4-1.1 1.5-2.5 4.7-3.6.5-1.6 1.2-3.4 2.1-5.3-4.8-.4-9.2-1-14-1.4-.7 3.7-1.3 10 .8 17.4.5 1.9 2.3 7.5 6.9 13.5 4.7 6.2 10.2 9.8 13.8 11.8 1-.8 2-1.7 3-2.5-.1-.3-.2-.7-.3-1.1-2.6-.3-4.9-1.4-6.3-3.3z" fill="url(#J)" opacity=".3"/><path d="m469 347.5c-4.5 3-11.8 8.8-16.6 18.3-3.2 6.4-4 11.8-4.2 13.2-1.1 8.3.8 15.1 2.2 18.8 1-.1 2-.3 3-.4.8-2.4 2-6.1 3.1-10.8 2-8 1.4-8.9 3-12.3.6-1.3 3.7-7.9 10.9-12 4.1-2.3 6.5-2.1 9.5-5.1 2.4-2.4 3.4-5.1 3.9-7.1-4.9-.9-9.8-1.8-14.8-2.6z" fill="url(#K)"/><path d="m450 321.7-4.6-5.4s-.6 2.1.2 3c.8.8 2.3 1.4 2.7 1.9.4.6 1.1 1.7 1.1 1.7z" fill="url(#L)"/><path d="m449.6 319.7c-.7.7-1.3 1.3-2 2 .5 2.4 1.9 6.3 5.4 9.5 6 5.5 15.8 6.6 25 3-1.6 3-3.5 4.8-4.9 5.9-2.2 1.8-3.8 2.2-5.3 4.4-.6 1-1.9 2.9-1.3 4.7.9 2.5 5.1 3.2 9.8 3.9 3.6.6 6.8.7 9.6.6.9-1 2.3-2.5 4.1-4.3 7-7.2 9.1-8 11.9-11.8 2-2.6 7.2-9.4 4.8-13.4-1.8-3.1-7.3-3.1-14.4-3.3-3.2-.1-7-.1-11.6 1.3-4.9 1.5-5 3-10.2 4.7-3.7 1.2-7.6 2.5-11.9 1.2-5.5-1.6-8.2-6.8-9-8.4z" fill="url(#M)"/><path d="m498.2 317.3s-.2 1.9 0 2.7 2.6 1.5 2.6 1.5-5 2.4-9.3-.6l2.3-.2c1.1-.1 2.1-1 2.2-2l.1-.8z" fill="url(#N)"/><path d="m496.4 319.2c-.2-.1-1.6-.3-1.8-1-.3-1 .7-2.2.8-2.4.5-.8.6-.9.8-1.1l.3-.2c.2-.1.9-.1 1 0 .4.1.9 1.8.7 4.3v.3c.2.2-1.8.2-1.8.1z" fill="url(#O)"/><path d="m495.7 314c-.2.7.3 1.4.5 1.6 0 0 .2.1.3.3v.1c.2.5-.6 1-.5 1.2s.7 0 .7.1c.1.1-.4.4-.3.5 0 .1.3 0 .5.2.1.1.1.2.1.4s.1.3.2.4c.3.4 1 .6 1.2.5 0 0 0-.1.1-.3 0 0 0-.2.2-.3.2-.3.6-.4 1-.7.7-.5.9-.9 1-1s0 0 0-.1c.2-.5-.3-1.1-.5-1.3-.1-.1-.2-.2-.3-.3-.7-.7-1-.7-1.4-1.1-.5-.6-.2-.9-.6-1.2-.7-.3-2 .1-2.2 1z" fill="#26264f"/><path d="m496.3 317c.2-.2.5 0 .5.3s-.3.7-.7.6c-.3 0-.1-.5.2-.9z" fill="url(#P)"/><path d="m494.8 316.9s.6.8 1.3 0l.2.1s-.7 1.8-1 1.9c-.4 0-.7.2-1 0s-.1-1.4.5-2z" fill="#26264f"/><path d="m506.8 324.2c0-.1-.1-.1-.1-.2-.1 1.2-.4 2.4-1.1 3.3-2.4 3-6.7.7-10.8 3.7-4.4 3.3-3.3 8.8-6.9 9.7-2.5.6-3.9-1.9-6.2-.9-2.4 1-1.8 4.2-4.5 5.4-2.2 1-3.6-.6-5.6.2-1.2.5-2.5 1.8-3.2 5.6 1.9 1 4.8 1.5 8 2 3.6.6 6.8.7 9.6.6.9-1 2.3-2.5 4.1-4.3 7-7.2 9.1-8 11.9-11.8 2-2.6 7.2-9.3 4.8-13.3z" fill="#69e28e"/><g fill="#999"><path d="m325.9 424.4c-.4 0-.7-.3-.7-.7v-177.5c0-.4.3-.7.7-.7s.7.3.7.7v177.5c0 .4-.3.7-.7.7z"/><path d="m278 413.3c-.4 0-.7-.3-.7-.7v-170.9c0-.4.3-.7.7-.7s.7.3.7.7v170.8c.1.4-.2.8-.7.8z"/><path d="m167.5 421.2c-.1 0-.2 0-.3 0-.4-.1-.6-.6-.4-1l63.9-176.1c.1-.4.6-.6 1-.4.4.1.6.6.4 1l-63.9 176.1c-.1.2-.4.4-.7.4z"/><path d="m214.7 435c-.1 0-.1 0-.2 0-.4-.1-.6-.5-.5-.9l57.4-185.7c.1-.4.5-.6.9-.5s.6.5.5.9l-57.4 185.7c-.1.3-.4.5-.7.5z"/><path d="m278.6 241.5 47.9 3.6v1.1l-54.8 2.4-41-5v-1.1z"/></g><path d="m278.6 240.4 47.9 4.7-54.8 2.4-41-5z" fill="#d8dee8"/><g fill="#999"><path d="m227.1 394.8c-.1 0-.1 0-.2 0l-45.7-12c-.4-.1-.6-.5-.5-.9s.5-.6.9-.5l45.7 12c.4.1.6.5.5.9-.1.3-.4.5-.7.5z"/><path d="m240 352.8h-.1l-44.8-7.9c-.4-.1-.7-.5-.6-.9s.5-.7.9-.6l44.8 7.9c.4.1.7.5.6.9-.1.3-.4.6-.8.6z"/><path d="m253.5 309.4c-.1 0-.1 0 0 0l-43.5-5.6c-.4-.1-.7-.4-.6-.8s.4-.7.8-.6l43.4 5.6c.4.1.7.4.6.8 0 .3-.3.6-.7.6z"/><path d="m262.1 279.3h-.1l-40.8-6.4c-.4-.1-.7-.4-.6-.9.1-.4.4-.7.9-.6l40.8 6.4c.4.1.7.4.6.9-.1.3-.4.6-.8.6z"/></g><path d="m306.6 157.7.8-.5c.5-.3.7-1 .5-1.6l-.3-.6s-.1-1 .7-1.7c0 0-.4 2 .8 3.6l-1.1 1.8z" fill="url(#Q)"/><path d="m316.4 168.9c.1-.2 1.8-2.9 1.8-2.9s-.2-.9-.5-1.8c-.3-.8.2-1.7.2-1.7s.7 0 .5 1.1c-.1 1 .7 2.4.8 2.8 0 .4-1.3 3.2-1.3 3.2z" fill="url(#R)"/><path d="m306.6 157 1.9 2s-4.6 11-16.5 12.8c-3.2-1.9-12.9-7.7-14.2-10.4-.2-.4-.7-1.4-.3-1.9s1.4-.3 1.8-.2c3.4.9 13.2 8.3 27.3-2.3z" fill="url(#T)"/><path d="m285.8 159.8-2 2.7 2 1.6 1.6-3.3z" fill="url(#U)"/><path d="m286.4 161.3c.2 0 1.5.5 2 0 .7-.7.5-2.2.5-2.5 0-.9 0-1.1-.2-1.3l-.2-.3c-.1-.2-.7-.5-.8-.5-.4-.1-1.6 1.2-2.7 3.4-.1.1-.1.1-.2.2-.1.2 1.6 1.1 1.6 1z" fill="url(#V)"/><path d="m289.9 157.8c-.4.3-1.1.4-1.5.5-.1 0-.2 0-.4.1 0 0-.1 0-.1.1-.4.3 0 1.2-.2 1.3s-.5-.3-.6-.3c-.1.1.1.5 0 .6s-.3-.1-.5-.1c-.1 0-.1.1-.3.3-.1.1-.3.2-.3.3-.4.3-1.2.1-1.2-.2 0-.1 0-.1.1-.2 0 0 0-.2 0-.4 0-.3-.3-.6-.4-1-.4-.8-.3-1.2-.3-1.4v-.1c.1-.5.7-.8 1.1-.9.5-.2 1.2-.4 2.1-.4.2 0 2.6-.1 3 .8 0 .3-.2.8-.5 1z" fill="#26264f"/><path d="m287.6 159.5c0-.3-.4-.3-.6 0s0 .7.3.8.3-.4.3-.8z" fill="url(#W)"/><path d="m266.9 239.8.3 3.3 1.2.6.4-3.6z" fill="url(#X)"/><path d="m266.8 243.1-.2 1.1s.1.5 2.7 1.1c2.6.7 3.1-.4 2.4-.6-.6-.2-2.6-1.1-2.6-1.1l-1.7-.9c-.2-.1-.6.1-.6.4z" fill="url(#Y)"/><path d="m287.7 237.9-1.3 3.3.7.9 2.6-3.1z" fill="url(#Z)"/><path d="m286.2 240.9-.8.8s-.2.5 1.7 2.4 2.8 1.3 2.4.8-1.6-2.3-1.6-2.3l-.9-1.6c-.2-.3-.6-.3-.8-.1z" fill="url(#aa)"/><path d="m270.1 198.2c-.2 2-.6 5.1-1.4 8.9-1.7 8.4-3.6 11.6-4.4 16.4-.7 4.1-.9 10.1 2.1 18 1 .1 1.9.2 2.9.2.3-6.4 1.5-11.3 2.6-14.5 2-6.1 5.5-12.8 7.9-23.1.5-2.2 1-4.7-.4-6.2-2.4-2.5-8.5 0-9.3.3z" fill="url(#ab)"/><path d="m279.4 198c-2.4-2.6-8.5-.1-9.2.2-.1 1.1-.3 2.5-.6 4.2 3.4 4.6 3.6 7.7 3.1 9.7-.9 3.1-3.8 4.2-3.9 7.8-.1 2.5 1.2 3.1.7 5.5-.5 2.7-2.1 2.8-2.7 5.3-.6 2.8 1 3.9 1.3 7.4.1.9 0 2.1-.3 3.5.5 0 1 .1 1.4.1.3-6.4 1.5-11.3 2.6-14.5 2-6.1 5.5-12.8 7.9-23.1.5-2.1 1-4.6-.3-6.1z" fill="url(#ac)" opacity=".3"/><path d="m271.6 195.8c.2 1.8.8 4.4 2.3 7.2 2.7 4.8 5.8 5.5 9.4 10.4.8 1.1 3.3 4.6 4.5 9.3 1.8 6.8 0 12.9-1.4 16.4.9.5 1.7 1 2.6 1.5 2.1-2.6 5.7-7.9 6.6-15.5 1.8-15.6-10.1-26.4-11.4-27.6-4.2-.5-8.4-1.1-12.6-1.7z" fill="url(#ad)"/><path d="m277 159.2s-1.8-.1-3.7 1.4c-5.1 3.9-6.3 15.6-6.3 15.6-.5 5.1-.7 13.2 1.9 23.3 1.9.2 5.3.5 9.5 1 5.4.6 7.1.9 8.5-.2 2-1.5 1.7-4.3 2.1-8.1.4-3.4 1.4-8.2 4.4-14.1 3.8 4 9.5 5.7 14.6 4.3 6.2-1.6 10.7-7.3 11.1-14-.6-.3-1.1-.7-1.7-1-1.9 1.6-5.3 3.9-9.8 4.4-7 .8-13.4-3.2-16-4.9-3.9-2.5-8-4.6-12-6.9-.4-.2-1.3-.8-2.6-.8z" fill="url(#ae)"/><path d="m282.2 198.8c-.5-.1-4.5-.7-5.8-3.4-1-2.2.8-3.3-.1-5.9-.9-2.7-3.4-2.6-4.3-5.2-.7-2.1.6-3 1-6.1.7-5.3-2.6-7.2-2.3-11.8.1-1.4.5-3.2 1.9-5.2-4.6 4.4-5.6 15-5.6 15-.5 5.1-.7 13.2 1.9 23.3 1.9.2 5.3.5 9.5 1 5.4.6 7.1.9 8.5-.2.9-.7 1.4-1.7 1.6-3-1.7 1-3.9 1.9-6.3 1.5z" fill="url(#af)" opacity=".3"/></svg>