<svg enable-background="new 0 0 222 172.9" viewBox="0 0 222 172.9" xmlns="http://www.w3.org/2000/svg"><path d="m171.9 0h-150.8c-11.6 0-21.1 9.5-21.1 21.1v96.4 5.1c0 11.7 9.5 21.1 21.1 21.1h54.9l-1.4 15.3h-16.3c-1.9 0-3.4 1.5-3.4 3.4s1.5 3.4 3.4 3.4h76.3c1.9 0 3.4-1.5 3.4-3.4s-1.5-3.4-3.4-3.4h-16.3l-1.4-15.2h17.8c1.9 0 3.4-1.5 3.4-3.4s-1.5-3.4-3.4-3.4h-20.9c-.3-.1-.6-.1-.9-.1-.1 0-.2 0-.3.1h-32.3c-.1 0-.2 0-.3-.1-.3 0-.6 0-.9.1h-58c-7.9 0-14.4-6.5-14.4-14.4v-1.8h131.5c1.9 0 3.4-1.5 3.4-3.4s-1.5-3.4-3.4-3.4h-131.5v-93c0-7.9 6.5-14.4 14.4-14.4h150.8c7.9 0 14.4 6.5 14.4 14.4v65.2c0 1.9 1.5 3.4 3.4 3.4s3.4-1.5 3.4-3.4v-65.1c-.1-11.6-9.6-21.1-21.2-21.1zm-60.2 159h-30.3l1.4-15.2h27.5z" fill="#999"/><path d="m90.9 125.1c-1.9 0-3.4 1.5-3.4 3.4s1.5 3.4 3.4 3.4h11.2c1.9 0 3.4-1.5 3.4-3.4s-1.5-3.4-3.4-3.4z" fill="#999"/><path d="m135.8 96.5h-80.5c-13.1 0-23.7-10.6-23.7-23.7s10.6-23.7 23.7-23.7c2.8 0 5.6.5 8.3 1.5 4.6-14.1 18-24 33.1-24 17.2 0 31.5 12.4 34.3 29 1.6-.4 3.2-.6 4.9-.6 11.4 0 20.7 9.3 20.7 20.7-.1 11.5-9.4 20.8-20.8 20.8z" fill="#ddd"/><g fill="#666"><path d="m135.8 96.5h-80.5c-13.1 0-23.7-10.6-23.7-23.7s10.6-23.7 23.7-23.7c2.8 0 5.6.5 8.3 1.5 4.6-14.1 18-24 33.1-24 17.2 0 31.5 12.4 34.3 29 1.6-.4 3.2-.6 4.9-.6 11.4 0 20.7 9.3 20.7 20.7-.1 11.5-9.4 20.8-20.8 20.8zm-80.5-40.7c-9.3 0-17 7.6-17 17 0 9.3 7.6 17 17 17h80.6c7.7 0 14-6.3 14-14s-6.3-14-14-14c-2.1 0-4.2.5-6.3 1.6-1 .5-2.2.5-3.2-.1s-1.6-1.6-1.7-2.8c-.6-15.2-12.9-27.1-28-27.1-13.4 0-25 9.5-27.6 22.7-.2 1.1-.9 2-1.9 2.4s-2.2.4-3.1-.2c-2.8-1.6-5.8-2.5-8.8-2.5z"/><path d="m78.2 61.3c-.2 0-.4 0-.7-.1-1.8-.4-3-2.1-2.7-3.9 2-10.3 11.2-17.9 21.7-17.9 1.9 0 3.4 1.5 3.4 3.4s-1.5 3.4-3.4 3.4c-7.3 0-13.7 5.2-15.1 12.4-.2 1.6-1.6 2.7-3.2 2.7z"/><path d="m47.7 76.1c-1.9 0-3.4-1.5-3.4-3.4 0-6 4.9-10.9 10.9-10.9 1.9 0 3.4 1.5 3.4 3.4s-1.5 3.4-3.4 3.4c-2.3 0-4.2 1.9-4.2 4.2.1 1.8-1.4 3.3-3.3 3.3z"/></g><path d="m221.5 130.5c-1.5-9.7-6.7-18.2-14.7-23.9-7.9-5.8-17.6-8.1-27.3-6.5-7.3 1.2-13.9 4.4-19.2 9.3l-.2-3.8c-.1-1.7-1.6-3.1-3.3-3s-3.1 1.6-3 3.3l.7 11.5c0 .8.4 1.6 1.1 2.2.6.5 1.3.8 2.1.8h.2l11.5-.9c1.7-.1 3-1.6 2.9-3.4-.1-1.7-1.6-3-3.4-2.9l-3.8.3c4.3-3.8 9.6-6.3 15.4-7.3 8-1.3 16 .7 22.6 5.4 6.6 4.8 10.9 11.8 12.2 19.8s-.7 16-5.4 22.6c-4.8 6.6-11.8 10.9-19.8 12.2s-16-.7-22.6-5.4c-8.1-5.9-12.5-15.4-12.5-25.2 0-5.8-6.3-5.1-6.3-.2 0 11.8 5.3 23.4 15.1 30.5 6.3 4.6 13.8 7 21.5 7 1.9 0 3.9-.2 5.8-.5 9.7-1.5 18.2-6.7 23.9-14.7 5.7-7.9 8.1-17.6 6.5-27.2z" fill="#5cd1ff"/></svg>